<svg viewBox="0 0 67 84" xmlns="http://www.w3.org/2000/svg" xmlns:xlink="http://www.w3.org/1999/xlink" width="67.000000" height="84.000000" fill="none" customFrame="#000000">
	<defs>
		<linearGradient id="paint_linear_0" x1="46.857811" x2="47.5577011" y1="61.3125229" y2="60.0956879" gradientUnits="userSpaceOnUse">
			<stop stop-color="rgb(150,204,255)" offset="0" stop-opacity="1" />
			<stop stop-color="rgb(106,139,214)" offset="1" stop-opacity="1" />
		</linearGradient>
	</defs>
	<g id="Efisien">
		<path id="Vector 6214" d="M31.4167 58.3643L22.4512 63.5206L58.0346 83.9853L67.0001 78.829L31.4167 58.3643Z" fill="rgb(202,210,224)" fill-rule="nonzero" />
		<g id="Group 1948">
			<g id="Group 1949">
				<g id="Group 1950">
					<path id="Vector 6215" d="M27.3416 0.826416L63.2876 21.5001L58.6911 82.4123L22.7451 61.7387L27.3416 0.826416Z" fill="rgb(72,80,106)" fill-rule="nonzero" />
				</g>
				<g id="Group 1951">
					<path id="Vector 6216" d="M60.2071 23.7564L57.0788 65.2161L26.709 47.7506L29.8382 6.29004L60.2071 23.7564Z" fill="rgb(237,237,237)" fill-rule="nonzero" />
				</g>
				<g id="Group 1952">
					<path id="Vector 6217" d="M63.2869 21.4993L65.0142 20.6729L60.4177 81.5851L58.6904 82.4115L63.2869 21.4993Z" fill="rgb(49,54,72)" fill-rule="nonzero" />
				</g>
				<g id="Group 1953">
					<path id="Vector 6218" d="M27.3408 0.826411L29.0681 0L65.0141 20.6727L63.2868 21.4991L27.3408 0.826411Z" fill="rgb(42,46,61)" fill-rule="nonzero" />
				</g>
			</g>
		</g>
		<g id="Group 1954">
			<g id="Group 1955">
				<path id="Vector 6219" d="M33.3398 8.26318L36.8653 13.7715L53.2042 23.1686L56.2952 21.4647L33.3398 8.26318Z" fill="rgb(197,202,208)" fill-rule="nonzero" />
			</g>
			<g id="Group 1956">
				<g id="Group 1957">
					<g id="Group 1958">
						<path id="Vector 6220" d="M56.2949 21.465L56.6435 21.2987L56.9726 16.9419L56.624 17.109L56.2949 21.465Z" fill="rgb(173,164,183)" fill-rule="nonzero" />
					</g>
					<g id="Group 1959">
						<path id="Vector 6221" d="M56.6243 17.1088L56.973 16.9417L34.0176 3.74023L33.6689 3.90646L56.6243 17.1088Z" fill="rgb(173,164,183)" fill-rule="nonzero" />
					</g>
					<g id="Group 1960">
						<path id="Vector 6222" d="M33.6689 3.90649L33.3398 8.26333L56.2952 21.4648L56.6243 17.1089L33.6689 3.90649Z" fill="rgb(221,225,231)" fill-rule="nonzero" />
					</g>
				</g>
			</g>
			<g id="Group 1961">
				<path id="Vector 6223" d="M44.518 7.57436L44.8667 7.40723C44.5628 7.55209 44.354 7.89194 44.3167 8.38037C44.2962 8.65431 44.3316 8.94495 44.4118 9.23002C44.4789 9.46775 44.5768 9.7008 44.6998 9.91716C44.9282 10.3192 45.2414 10.6637 45.5975 10.8689C45.7737 10.9702 45.9452 11.0286 46.1055 11.0481C46.2798 11.0686 46.442 11.0435 46.5828 10.9766L46.2341 11.1438C46.0925 11.2106 45.9312 11.2366 45.7569 11.2153C45.5966 11.1958 45.425 11.1373 45.2489 11.037C44.8928 10.8318 44.5796 10.4873 44.3512 10.0852C44.2281 9.86887 44.1303 9.63488 44.0631 9.39809C43.982 9.11302 43.9466 8.82238 43.9681 8.54844C44.0044 8.05908 44.2141 7.72016 44.518 7.57436Z" fill="rgb(173,164,183)" fill-rule="nonzero" />
				<path id="Vector 6224" d="M43.9346 6.35981C44.1704 6.24652 44.4445 6.20381 44.7372 6.23816C45.0075 6.26879 45.2955 6.36817 45.5873 6.53808C46.1895 6.88536 46.7171 7.46388 47.1011 8.14171C47.3109 8.50665 47.4758 8.89757 47.5849 9.29684C47.7201 9.77507 47.7807 10.2616 47.7462 10.7222C47.7108 11.1698 47.5933 11.5393 47.4059 11.8263L47.7723 11.635C47.9466 11.3527 48.064 10.9878 48.0948 10.5532C48.1293 10.0973 48.0687 9.61069 47.9335 9.13249C47.8245 8.73321 47.6585 8.34135 47.4497 7.97642C47.0657 7.29855 46.5381 6.71636 45.9359 6.37279C45.6432 6.20378 45.3561 6.1035 45.0849 6.07286C44.7931 6.03852 44.5181 6.07751 44.2823 6.18987L43.9346 6.35981Z" fill="rgb(173,164,183)" fill-rule="nonzero" />
			</g>
			<g id="Group 1962">
				<path id="Vector 6225" d="M47.7459 10.7202C47.6284 12.2793 46.4726 12.932 45.1629 12.1781C43.8551 11.4259 42.8903 9.55395 43.0077 7.99487C43.1252 6.4386 44.2811 5.78581 45.588 6.53795C46.8986 7.29196 47.8634 9.16394 47.7459 10.7202ZM45.2496 11.0369C46.0279 11.4844 46.7168 11.0953 46.7867 10.1686C46.8566 9.24473 46.2815 8.1286 45.5022 7.68103C44.7238 7.23347 44.0368 7.62345 43.9679 8.5474C43.8979 9.47409 44.4712 10.5893 45.2496 11.0369Z" fill="rgb(221,225,231)" fill-rule="nonzero" />
			</g>
		</g>
		<path id="Vector 6226" d="M57.0792 65.2161L26.7104 47.7498C26.3329 51.3693 23.7806 55.4114 20.7734 57.1404L51.1423 74.6068C54.1485 72.8777 56.7017 68.8357 57.0792 65.2161Z" fill="rgb(237,237,237)" fill-rule="nonzero" />
		<g id="Group 1963">
			<g id="Group 1964">
				<path id="Vector 6227" d="M50.6961 66.1958L46.8081 63.9506C45.7874 63.3609 45.0575 61.9291 45.1805 60.7581L45.6494 56.2954C45.7724 55.1245 46.7027 54.6509 47.7235 55.2397L51.6115 57.4849C52.6322 58.0746 53.3621 59.5064 53.2391 60.6774L52.7702 65.1401C52.6471 66.3119 51.7168 66.7846 50.6961 66.1958ZM47.62 56.2193C47.07 55.9017 46.5694 56.1571 46.5023 56.7876L46.0334 61.2503C45.9673 61.8817 46.3606 62.6533 46.9106 62.9709L50.7986 65.2162C51.3486 65.5338 51.8501 65.2784 51.9163 64.6479L52.3852 60.1852C52.4514 59.5538 52.058 58.7822 51.508 58.4646L47.62 56.2193Z" fill="rgb(189,189,187)" fill-rule="nonzero" />
			</g>
			<g id="Group 1965">
				<path id="Vector 6228" d="M48.1613 63.0285L45.762 58.4228C45.5299 57.978 45.7042 57.4301 46.1507 57.1989C46.5972 56.9677 47.1472 57.1414 47.3793 57.5871L48.8567 60.4238L53.8979 57.1906C54.3211 56.9194 54.885 57.0411 55.1572 57.4627C55.4294 57.8842 55.3073 58.446 54.8841 58.7172L48.1613 63.0285Z" fill="rgb(167,214,39)" fill-rule="nonzero" />
			</g>
		</g>
		<g id="Group 1966">
			<path id="Vector 6229" d="M42.1024 56.5192L30.5446 49.8576C30.0934 49.5976 29.755 48.9132 29.7895 48.3282C29.824 47.7432 30.2174 47.4805 30.6685 47.7405L42.2264 54.402C42.6776 54.662 43.016 55.3473 42.9815 55.9314C42.947 56.5164 42.5536 56.7792 42.1024 56.5192Z" fill="rgb(189,189,187)" fill-rule="nonzero" />
			<path id="Vector 6230" d="M38.3276 58.1256L30.3288 53.5153C29.8776 53.2553 29.5392 52.5709 29.5737 51.9859C29.6082 51.4019 30.0016 51.1381 30.4527 51.3991L38.4516 56.0094C38.9028 56.2694 39.2411 56.9538 39.2066 57.5388C39.1731 58.1228 38.7797 58.3856 38.3276 58.1256Z" fill="rgb(189,189,187)" fill-rule="nonzero" />
		</g>
		<g id="Group 1967">
			<path id="Vector 6231" d="M49.1555 46.7016L46.7561 42.0959C46.524 41.6511 46.6983 41.1032 47.1448 40.872C47.5913 40.6408 48.1413 40.8145 48.3734 41.2602L49.8509 44.0969L54.8929 40.8637C55.3161 40.5925 55.8801 40.7142 56.1523 41.1357C56.4245 41.5573 56.3024 42.1191 55.8792 42.3903L49.1555 46.7016Z" fill="rgb(167,214,39)" fill-rule="nonzero" />
		</g>
		<g id="Group 1968">
			<path id="Vector 6232" d="M50.6027 29.1088L36.4059 20.9262C35.9547 20.6662 35.6164 19.9818 35.6509 19.3968C35.6853 18.8127 36.0787 18.549 36.5299 18.81L50.7267 26.9925C51.1778 27.2526 51.5162 27.9369 51.4817 28.5219C51.4472 29.106 51.0539 29.3697 50.6027 29.1088Z" fill="rgb(189,189,187)" fill-rule="nonzero" />
			<path id="Vector 6233" d="M50.3869 32.7672L36.1901 24.5846C35.7389 24.3246 35.4005 23.6403 35.435 23.0553C35.4695 22.4712 35.8629 22.2075 36.3141 22.4684L50.5109 30.651C50.962 30.911 51.3004 31.5953 51.2659 32.1803C51.2324 32.7644 50.8381 33.0272 50.3869 32.7672Z" fill="rgb(189,189,187)" fill-rule="nonzero" />
		</g>
		<g id="Group 1969">
			<path id="Vector 6234" d="M43.3651 40.5414L31.8073 33.8798C31.3561 33.6198 31.0177 32.9345 31.0522 32.3504C31.0867 31.7654 31.4801 31.5027 31.9312 31.7627L43.4891 38.4242C43.9403 38.6842 44.2786 39.3695 44.2442 39.9536C44.2097 40.5386 43.8163 40.8023 43.3651 40.5414Z" fill="rgb(189,189,187)" fill-rule="nonzero" />
			<path id="Vector 6235" d="M39.5903 42.1486L31.5914 37.5382C31.1403 37.2782 30.8019 36.5939 30.8364 36.0089C30.8709 35.4248 31.2643 35.1611 31.7154 35.422L39.7143 40.0324C40.1655 40.2924 40.5038 40.9767 40.4693 41.5617C40.4358 42.1458 40.0424 42.4086 39.5903 42.1486Z" fill="rgb(189,189,187)" fill-rule="nonzero" />
		</g>
		<g id="Group 1970">
			<g id="Group 1971">
				<g id="Group 1972">
					<path id="Vector 6236" d="M44.9307 60.2036L49.4899 61.2065L44.9307 60.2036Z" fill="url(#paint_linear_0)" fill-rule="nonzero" />
					<path id="Vector 6237" d="M48.9068 61.5798L46.376 61.628L46.8747 59.4766L49.1538 60.4655C49.4624 60.5333 49.6581 60.8378 49.5901 61.1461C49.5211 61.4535 49.2153 61.6475 48.9068 61.5798Z" fill="rgb(119,119,166)" fill-rule="nonzero" />
				</g>
				<g id="Group 1973">
					<g id="Group 1974">
						<path id="Vector 6238" d="M29.9474 55.8618L29.142 55.6185C29.142 55.6185 28.1922 55.04 27.9134 54.6955C27.6347 54.351 27.5359 53.9527 27.5359 53.9527L27.7373 53.6639L28.291 53.6592C28.291 53.6592 28.6424 53.7447 29.0656 53.6026C29.4888 53.4605 29.0544 53.064 29.0544 53.064C29.0544 53.064 28.3022 52.96 28.14 52.9647C27.9787 52.9693 27.2236 52.9674 27.0447 53.0176C26.8657 53.0677 26.2206 53.1049 26.2206 53.1049L25.5747 52.96C25.5747 52.96 25.5122 52.8737 25.4031 52.7251C24.882 52.922 24.3787 53.1708 23.9825 53.5608C23.9685 53.5747 23.9564 53.5887 23.9434 53.6026C24.4244 54.0363 24.773 54.3659 24.9175 54.495C25.336 54.871 25.3397 55.1329 25.8739 55.4616C26.408 55.7903 27.3756 56.3827 27.6804 56.4719C27.9852 56.561 28.5827 56.7467 28.6685 56.6929C28.7542 56.639 28.8064 56.5462 28.8064 56.5462C28.8064 56.5462 29.3378 56.6548 29.4673 56.6836C29.5969 56.7124 29.6137 56.5908 29.6435 56.5982C29.6733 56.6047 29.8113 56.5518 29.8439 56.4552C29.8766 56.3577 30.1963 56.4292 30.1953 56.2936C30.1954 56.1571 29.9474 55.8618 29.9474 55.8618Z" fill="rgb(255,156,120)" fill-rule="nonzero" />
						<path id="Vector 6239" d="M25.5654 52.7084C25.7117 52.9907 25.6856 54.7271 24.7721 54.5228C24.1177 54.0418 20.005 50.5745 19.7888 50.1752C19.5716 49.776 20.1812 45.8165 21.6606 47.6727C23.1399 49.5289 25.5654 52.7084 25.5654 52.7084Z" fill="rgb(72,96,191)" fill-rule="nonzero" />
						<path id="Vector 6240" d="M21.2528 47.2873C19.463 44.6493 17.1354 39.5459 15.7586 38.8801C14.3818 38.2152 15.1658 43.9659 16.3114 45.8518C17.457 47.7377 18.1104 48.8316 19.7893 50.1752C21.4681 51.5188 21.2528 47.2873 21.2528 47.2873Z" fill="rgb(72,96,191)" fill-rule="nonzero" />
						<path id="Vector 6241" d="M11.1664 75.6245C11.5038 75.604 11.831 75.553 11.9541 75.7164C12.0771 75.8798 12.1992 76.2568 12.0771 76.7053C11.9541 77.1538 11.2279 78.01 10.9315 78.2236C10.635 78.4371 10.3069 78.998 9.96948 79.4873C9.63204 79.9767 9.27409 80.8226 8.93572 81.1077C8.59828 81.3928 6.99683 81.2813 6.86633 80.9443C6.73582 80.6081 6.63329 79.7724 6.97167 79.3443C7.30909 78.9172 11.1664 75.6245 11.1664 75.6245Z" fill="rgb(33,36,48)" fill-rule="nonzero" />
						<path id="Vector 6242" d="M19.9655 80.8124C19.382 81.0566 19.1368 81.1486 18.942 81.5154C18.7472 81.8821 18.8292 82.3409 18.86 82.5349C18.8908 82.7281 19.464 83.6148 20.4353 83.483C21.4076 83.3502 21.8476 82.7596 22.0415 82.5349C22.2353 82.3102 22.0004 82.2294 22.5225 81.9945C23.0445 81.7605 23.8629 81.5051 24.6608 81.1281C25.4588 80.7511 25.909 79.9256 26.0218 79.3239C26.1346 78.7222 25.1418 78.2031 25.1418 78.2031L19.9655 80.8124Z" fill="rgb(33,36,48)" fill-rule="nonzero" />
						<path id="Vector 6243" d="M7.44116 77.2152C7.43091 77.256 7.16524 78.0407 7.14474 78.7232C7.12423 79.4066 6.97043 79.8541 7.14474 80.0993C7.31905 80.3435 8.53646 80.5376 9.0072 80.2321C9.47795 79.9266 10.1016 78.7232 10.1016 78.7232C10.1016 78.7232 11.3395 77.5513 11.5138 77.2152C11.6881 76.879 11.841 76.4918 11.841 76.1956C11.841 75.9003 11.5445 75.4825 11.5445 75.4825C11.5445 75.4825 9.92819 75.1055 9.26262 75.3599C8.59705 75.6144 7.44116 77.2152 7.44116 77.2152Z" fill="rgb(51,55,74)" fill-rule="nonzero" />
						<path id="Vector 6244" d="M19.2798 79.6815C19.2183 79.9164 19.0542 81.1905 19.1875 81.6696C19.3208 82.1487 19.6993 82.587 20.4767 82.4951C21.2541 82.4032 22.8099 81.3641 22.8099 81.3641C22.8099 81.3641 24.7842 80.6909 25.1329 80.3241C25.4806 79.9573 25.6605 79.52 25.6856 79.0687C25.7099 78.6174 25.1841 78.0918 24.98 78.0305C24.7749 77.9692 21.8489 78.0918 21.4499 78.1327C21.05 78.1726 19.2798 79.6815 19.2798 79.6815Z" fill="rgb(51,55,74)" fill-rule="nonzero" />
						<path id="Vector 6245" d="M10.5724 50.0823C8.95604 54.7503 9.2422 55.6677 9.42677 57.2778C9.61134 58.888 9.57033 61.6402 9.57033 61.6402C9.57033 61.6402 9.03807 64.1882 8.93553 65.4112C8.83299 66.6341 12.8497 67.0649 13.2207 66.5004C13.5917 65.9358 14.563 62.8836 14.727 61.7006C14.8911 60.5185 15.2183 55.014 14.9927 53.4243C14.7671 51.8345 15.3814 47.1657 13.9086 47.2883C12.4349 47.4118 10.5724 50.0823 10.5724 50.0823Z" fill="rgb(38,50,99)" fill-rule="nonzero" />
						<path id="Vector 6246" d="M12.4759 50.1026C12.1487 51.0405 10.839 52.7528 11.3909 55.6471C11.9436 58.5415 12.639 59.6632 13.2943 60.6614C13.9487 61.6605 15.3404 63.8622 15.9752 66.1855C16.6091 68.5097 16.3844 69.2024 16.7732 69.9972C17.1619 70.7921 20.0469 70.2619 20.4571 69.5283C20.8663 68.7947 21.0303 69.4262 21.0919 67.7752C21.1534 66.1242 20.8262 61.1294 20.4375 59.1933C20.0488 57.2563 19.0663 53.6284 18.8621 51.7731C18.6571 49.9179 17.0817 48.2056 17.0817 48.2056L12.4759 50.1026Z" fill="rgb(38,50,99)" fill-rule="nonzero" />
						<path id="Vector 6247" d="M10.4579 50.1463C10.2258 50.8529 10.0375 51.5345 10.0571 51.6487C10.0766 51.7638 11.679 52.9255 15.5736 53.4092C18.6758 53.7946 18.9723 53.3062 18.9788 52.776C18.9853 52.2457 18.9993 51.0089 18.7672 50.4248C18.5341 49.8408 10.4579 50.1463 10.4579 50.1463Z" fill="rgb(33,36,48)" fill-rule="nonzero" />
						<path id="Vector 6248" d="M16.8353 66.635C16.5697 67.8784 16.3282 67.9954 16.4895 68.8441C16.6508 69.6928 18.5747 79.5384 18.9224 80.2525C19.2701 80.9656 20.7029 80.9248 21.3367 80.5376C21.9706 80.1503 22.4423 79.5997 22.4619 79.0695C22.4824 78.5393 21.0981 67.3686 21.0981 67.3686L16.8353 66.635Z" fill="rgb(38,50,99)" fill-rule="nonzero" />
						<path id="Vector 6249" d="M9.10426 64.1418C9.10426 64.1418 8.51421 65.6461 7.81881 67.6843C7.12342 69.7225 6.88946 77.7036 7.17656 78.5198C7.46274 79.3351 9.59085 79.1317 9.9805 78.6219C10.3692 78.1121 10.4512 77.3786 10.4512 77.3786C10.4512 77.3786 11.9632 69.0437 13.2216 66.5014L9.10426 64.1418Z" fill="rgb(38,50,99)" fill-rule="nonzero" />
						<path id="Vector 6250" d="M15.7018 37.7017C16.2881 38.9794 17.9529 41.5887 18.3752 42.6761C18.7984 43.7634 19.0436 51.3062 18.9615 51.9311C18.8795 52.556 15.5237 52.6238 13.4086 51.9311C11.2945 51.2384 10.5301 50.9301 10.3801 50.6441C10.23 50.3591 10.0333 46.0765 9.87016 45.1117C9.70611 44.1469 9.50848 41.9518 9.69958 40.0222C9.89067 38.0927 10.4789 37.3517 11.0298 36.8112C11.5797 36.2718 12.4401 36.0712 13.4637 36.2067C14.4872 36.3423 15.7018 37.7017 15.7018 37.7017Z" fill="rgb(48,64,128)" fill-rule="nonzero" />
						<path id="Vector 6251" d="M12.7005 32.266C12.7685 33.4211 13.0687 34.3321 12.5774 35.6767C12.0862 37.0222 12.1682 37.2942 12.1682 37.2942C12.1682 37.2942 13.71 37.1308 14.5695 37.8244C15.4289 38.5181 16.1998 38.6704 16.1998 38.6704L16.4655 36.8188C16.4655 36.8188 17.2159 36.9275 17.7071 36.8736C18.1984 36.8188 18.7847 34.5633 18.7847 34.5633C18.7847 34.5633 18.9795 33.9923 18.9777 33.5438C18.9758 33.0953 19.4167 30.8667 18.9777 29.9827C18.5386 29.0996 17.5431 28.7189 17.0658 29.0588C16.5885 29.3986 12.7005 32.266 12.7005 32.266Z" fill="rgb(255,156,120)" fill-rule="nonzero" />
						<path id="Vector 6252" d="M17.0083 32.7858C17.0083 32.7551 16.6299 32.4701 16.3838 32.8368C16.1386 33.2036 16.0156 33.8871 16.1582 34.1619C16.3018 34.4367 16.2812 34.8852 16.5982 34.6921C16.9151 34.499 16.7827 33.9028 16.7827 33.8035C16.7837 33.7032 17.0083 32.7858 17.0083 32.7858Z" fill="rgb(255,156,120)" fill-rule="nonzero" />
						<path id="Vector 6253" d="M12.8242 44.1904C12.8242 44.3947 12.8242 48.6346 13.1719 50.1017C13.5196 51.5697 16.3254 49.6662 16.4457 49.0413C16.5668 48.4173 16.6097 45.3521 16.6097 44.8627C16.6097 44.3743 12.8242 44.1904 12.8242 44.1904Z" fill="rgb(72,96,191)" fill-rule="nonzero" />
						<path id="Vector 6254" d="M18.6901 30.8387C18.6901 31.0699 18.8262 31.8713 18.526 32.1294C18.2259 32.3876 18.1578 32.265 17.9527 32.6457C17.7477 33.0264 17.6666 33.5566 17.6666 33.5566L17.0663 33.5019C17.0663 33.5019 16.9572 32.6596 16.3979 32.7005C15.8386 32.7414 15.0332 33.6384 14.8701 34.0191C14.706 34.3998 14.652 34.6849 14.2427 34.7397C13.8335 34.7944 13.1642 34.8604 12.851 34.3181C12.5378 33.7749 12.0727 32.7729 11.9673 32.1545C11.862 31.5352 11.3838 28.8488 13.3479 28.2239C14.5755 27.1226 16.4995 27.4086 17.6321 27.6807C18.7646 27.9528 19.3463 29.3725 19.3603 29.536C19.3743 29.6994 19.2913 30.134 19.0928 30.3095C19.021 30.3735 18.6099 30.6094 18.6099 30.6094L18.6901 30.8387Z" fill="rgb(41,25,37)" fill-rule="nonzero" />
					</g>
					<path id="Vector 6255" d="M12.3638 36.3061C12.1764 36.2922 12.1047 36.4343 12.0636 36.5262C12.0226 36.6181 11.8213 37.0119 11.8213 37.1753C12.5987 37.7872 12.9744 37.7185 13.997 38.076C15.0205 38.4326 16.4318 39.09 16.4318 39.09C16.4318 39.09 16.4392 38.3017 16.3702 38.1271C16.3022 37.9525 15.7159 37.791 14.6616 37.4037C13.6092 37.0146 13.3183 36.9218 12.3638 36.3061Z" fill="rgb(72,96,191)" fill-rule="nonzero" />
					<g id="Group 1975">
						<g id="Group 1976">
							<g id="Group 1977">
								<path id="Vector 6256" d="M48.3874 61.1815C48.1087 61.7767 47.5019 62.0302 47.034 61.747C46.5651 61.4648 46.4122 60.7525 46.6909 60.1573C46.9696 59.5621 47.5765 59.3086 48.0444 59.5918C48.5133 59.875 48.6671 60.5863 48.3874 61.1815Z" fill="rgb(0,0,85)" fill-rule="nonzero" />
							</g>
							<g id="Group 1978">
								<path id="Vector 6257" d="M47.9897 59.5611C47.5301 59.3299 46.9597 59.5861 46.6912 60.1572C46.4115 60.7524 46.5654 61.4637 47.0342 61.7469C47.1684 61.8277 47.3148 61.8648 47.4602 61.862C46.9541 61.8704 46.4479 61.8797 45.9417 61.8881C45.9007 61.889 45.8448 61.8899 45.8038 61.8908C45.7208 61.8927 45.6108 61.8945 45.5279 61.8955C45.4868 61.8964 45.4309 61.8974 45.3899 61.8983C45.2519 61.901 45.114 61.9029 44.976 61.9057C44.8931 61.9076 44.7821 61.9029 44.7001 61.9103C44.4726 61.914 44.2452 61.8565 44.0355 61.7302C43.3047 61.2891 43.0651 60.1795 43.5004 59.2509C43.9189 58.3586 44.8082 57.9593 45.525 58.3205C46.3472 58.7346 47.1685 59.1478 47.9897 59.5611Z" fill="rgb(0,0,85)" fill-rule="nonzero" />
							</g>
							<g id="Group 1979">
								<path id="Vector 6258" d="M47.4603 61.863C46.5403 61.8788 45.6202 61.8946 44.7002 61.9104C45.267 61.9002 45.8365 61.5092 46.1478 60.8472L48.3888 61.1805C48.1893 61.6058 47.8239 61.8565 47.4603 61.863Z" fill="rgb(28,28,97)" fill-rule="nonzero" />
							</g>
							<g id="Group 1980">
								<path id="Vector 6259" d="M45.5254 58.3206C46.3466 58.7338 47.1679 59.1479 47.9891 59.5611C48.0077 59.5704 48.0264 59.5806 48.045 59.5918C48.5139 59.874 48.6668 60.5863 48.3881 61.1815L46.1471 60.8481C46.5824 59.9195 46.3429 58.8099 45.6121 58.3688C45.5832 58.3512 45.5543 58.3354 45.5254 58.3206Z" fill="rgb(28,28,97)" fill-rule="nonzero" />
							</g>
							<g id="Group 1981">
								<path id="Vector 6260" d="M45.2802 58.2278C44.6155 58.0551 43.8726 58.459 43.5007 59.2511C43.0653 60.1796 43.3049 61.2893 44.0357 61.7303C44.1653 61.8084 44.3014 61.8604 44.4403 61.8873C38.3029 60.6802 27.8721 58.5296 21.7347 57.3224C21.5539 57.2872 21.3758 57.2194 21.2071 57.1172C20.2544 56.5424 19.9422 55.0957 20.5099 53.8858C20.9946 52.8532 21.9631 52.3267 22.8291 52.5524C25.8549 53.3407 28.8807 54.1291 31.9074 54.9174C34.9341 55.7067 42.2544 57.4394 45.2802 58.2278Z" fill="rgb(0,0,85)" fill-rule="nonzero" />
							</g>
							<g id="Group 1982">
								<path id="Vector 6261" d="M44.44 61.8873C38.3026 60.6802 27.8717 58.5296 21.7344 57.3225C22.5752 57.4878 23.4924 56.9632 23.9594 55.9668L46.1467 60.8464C45.7888 61.6116 45.085 62.0146 44.44 61.8873Z" fill="rgb(33,33,115)" fill-rule="nonzero" />
							</g>
							<g id="Group 1983">
								<path id="Vector 6262" d="M22.8301 52.5532C25.8559 53.3416 28.8817 54.1299 31.9084 54.9183C34.9342 55.7066 42.2554 57.4393 45.2812 58.2277C45.3949 58.2574 45.5068 58.3038 45.613 58.3689C46.3438 58.8099 46.5834 59.9196 46.1481 60.8481L23.9608 55.9685C24.5285 54.7586 24.2162 53.3119 23.2635 52.7371C23.1237 52.6526 22.9783 52.5913 22.8301 52.5532Z" fill="rgb(33,33,115)" fill-rule="nonzero" />
							</g>
							<g id="Group 1984">
								<path id="Vector 6263" d="M24.1899 53.5904C24.0128 53.1596 23.7257 52.7974 23.3426 52.5662C22.3163 51.9469 20.9889 52.5022 20.3774 53.8059C19.7659 55.1096 20.1024 56.6677 21.1287 57.2871C21.8605 57.7282 22.7451 57.5731 23.4144 56.9751C23.4116 56.977 23.4088 56.9797 23.406 56.9825C23.405 56.9834 23.4032 56.9853 23.4022 56.9862C23.3994 56.9881 23.3967 56.9909 23.3938 56.9936C23.3929 56.9946 23.391 56.9964 23.3901 56.9974C23.3836 57.0038 23.3771 57.0094 23.3696 57.015C23.3575 57.0261 23.3472 57.0382 23.3333 57.0475C22.6304 57.6762 21.7001 57.8386 20.932 57.3753C19.8535 56.7244 19.5002 55.0873 20.1434 53.7177C20.7857 52.348 22.1811 51.7649 23.2596 52.4158C23.6623 52.6591 23.9634 53.0389 24.1498 53.492C24.1508 53.4948 24.1526 53.4994 24.1536 53.5022L24.1554 53.5069C24.1564 53.5096 24.1582 53.5133 24.1592 53.5171C24.1601 53.5198 24.162 53.5235 24.1629 53.5273L24.1647 53.5319C24.1657 53.5347 24.1675 53.5393 24.1685 53.5421C24.1694 53.5449 24.1713 53.5495 24.1722 53.5523C24.1731 53.5542 24.1731 53.556 24.1741 53.557C24.175 53.5597 24.1769 53.5644 24.1778 53.5672C24.1787 53.5699 24.1806 53.5746 24.1815 53.5774C24.1824 53.5792 24.1824 53.5811 24.1824 53.5811C24.1871 53.584 24.189 53.5877 24.1899 53.5904Z" fill="rgb(0,0,85)" fill-rule="nonzero" />
							</g>
							<g id="Group 1985">
								<path id="Vector 6264" d="M24.0929 56.0484C23.4814 57.3521 22.154 57.9065 21.1277 57.288C20.1014 56.6687 19.7649 55.1105 20.3764 53.8068C20.9879 52.5031 22.3162 51.9487 23.3416 52.5672C24.3689 53.1865 24.7044 54.7447 24.0929 56.0484ZM23.9597 55.9676C24.5273 54.7577 24.2151 53.311 23.2624 52.7362C22.3097 52.1614 21.0774 52.6767 20.5097 53.8867C19.942 55.0966 20.2543 56.5433 21.207 57.1181C22.1596 57.6929 23.392 57.1775 23.9597 55.9676Z" fill="rgb(0,0,85)" fill-rule="nonzero" />
							</g>
							<g id="Group 1986">
								<path id="Vector 6265" d="M23.4132 56.976C23.3861 57.0001 23.36 57.0243 23.333 57.0475C23.6164 56.7949 23.8625 56.4662 24.047 56.0734L24.0927 56.0483C23.9175 56.4226 23.6826 56.7346 23.4132 56.976Z" fill="rgb(0,0,85)" fill-rule="nonzero" />
							</g>
							<g id="Group 1987">
								<path id="Vector 6266" d="M24.1483 53.4912C24.1492 53.494 24.1511 53.4986 24.152 53.5014L24.1539 53.5061C24.1548 53.5088 24.1567 53.5126 24.1576 53.5163C24.1586 53.519 24.1604 53.5228 24.1614 53.5265L24.1632 53.5311C24.1642 53.5339 24.166 53.5385 24.1669 53.5413C24.1679 53.5441 24.1697 53.5487 24.1707 53.5515C24.1716 53.5534 24.1716 53.5552 24.1725 53.5562C24.1735 53.5589 24.1753 53.5636 24.1763 53.5664C24.1772 53.5691 24.1791 53.5738 24.18 53.5766C24.1809 53.5784 24.1809 53.5803 24.1809 53.5803C24.1828 53.5849 24.1847 53.5886 24.1856 53.5914C24.4839 54.3148 24.4727 55.2322 24.0886 56.0484L24.043 56.0735C24.4494 55.2147 24.4615 54.2508 24.1483 53.4912Z" fill="rgb(0,0,85)" fill-rule="nonzero" />
							</g>
							<g id="Group 1988">
								<path id="Vector 6267" d="M22.6739 52.1856C21.7184 51.9906 20.6735 52.5849 20.1421 53.7168C19.4999 55.0865 19.8532 56.7235 20.9307 57.3745C21.092 57.472 21.2617 57.5416 21.4332 57.5852C16.4564 56.327 9.74108 54.6602 4.76521 53.402C4.61513 53.364 4.46785 53.3036 4.32709 53.2182C3.38748 52.6518 3.07986 51.2245 3.64009 50.0313C4.10244 49.0452 5.01317 48.527 5.84558 48.6969C10.8755 49.7249 17.644 51.1596 22.6739 52.1856Z" fill="rgb(0,0,85)" fill-rule="nonzero" />
							</g>
							<g id="Group 1989">
								<path id="Vector 6268" d="M5.68987 48.6745C4.90219 48.5947 4.07443 49.1072 3.64004 50.0321C3.07981 51.2253 3.38743 52.6525 4.32704 53.2189C4.42027 53.2756 4.51628 53.3211 4.61415 53.3564C4.59271 53.349 4.56381 53.3378 4.54144 53.3304C4.53026 53.3267 4.51628 53.3211 4.50508 53.3174C4.48365 53.3099 4.45382 53.2988 4.43237 53.2913C4.42119 53.2876 4.40721 53.2821 4.39601 53.2783C4.37458 53.2709 4.34475 53.2598 4.3233 53.2523C4.31212 53.2486 4.29814 53.243 4.28695 53.2393C4.26551 53.231 4.23569 53.2208 4.21424 53.2133C4.20306 53.2096 4.18907 53.204 4.17788 53.2003C4.15645 53.1929 4.12662 53.1817 4.10517 53.1743C4.09399 53.1706 4.08001 53.165 4.06881 53.1613C4.04738 53.1529 4.01755 53.1427 3.9961 53.1353C3.98492 53.1315 3.97094 53.126 3.95975 53.1223C3.94857 53.1185 3.93458 53.113 3.92339 53.1092C3.91221 53.1055 3.89823 53.0916 3.88703 53.0962C3.79289 53.0619 3.70061 53.0182 3.61111 52.9644C2.70877 52.4202 2.41328 51.0497 2.95115 49.9038C3.36783 49.0152 4.16296 48.5221 4.91987 48.5992C5.1781 48.6225 5.43446 48.6485 5.68987 48.6745Z" fill="rgb(0,0,85)" fill-rule="nonzero" />
							</g>
							<g id="Group 1990">
								<path id="Vector 6269" d="M21.4336 57.5861C16.4568 56.3278 9.7415 54.6611 4.76562 53.4029C5.61668 53.6183 6.56657 53.0992 7.04196 52.0852L24.0465 56.0734C23.5002 57.2369 22.4105 57.8331 21.4336 57.5861Z" fill="rgb(25,25,99)" fill-rule="nonzero" />
							</g>
							<g id="Group 1991">
								<path id="Vector 6270" d="M5.8457 48.6978C10.8756 49.7247 17.6441 51.1585 22.674 52.1855C22.8744 52.2263 23.0711 52.3025 23.2585 52.4148C24.337 53.0658 24.6903 54.7028 24.0471 56.0725L7.04258 52.0842C7.60281 50.891 7.29427 49.4638 6.35558 48.8974C6.19246 48.7999 6.02095 48.734 5.8457 48.6978Z" fill="rgb(25,25,99)" fill-rule="nonzero" />
							</g>
							<g id="Group 1992">
								<path id="Vector 6271" d="M4.61481 53.3567C4.59337 53.3492 4.56447 53.3381 4.5421 53.3306C4.53092 53.3269 4.51694 53.3213 4.50574 53.3176C4.48431 53.3102 4.45448 53.2991 4.43303 53.2916C4.41159 53.2833 4.38269 53.2731 4.36032 53.2656C4.34914 53.2619 4.33516 53.2563 4.32396 53.2526C4.30253 53.2452 4.27363 53.234 4.25125 53.2266C4.22982 53.2182 4.19999 53.208 4.17854 53.2006C4.16736 53.1969 4.15338 53.1913 4.14218 53.1876C4.12075 53.1801 4.09092 53.169 4.06947 53.1616C4.04804 53.1532 4.01821 53.143 3.99676 53.1355C3.98558 53.1318 3.9716 53.1262 3.96041 53.1225C3.93897 53.1142 3.91007 53.104 3.8877 53.0965C4.73969 53.4057 5.73523 52.9071 6.21904 51.8745L7.04121 52.0872C6.53785 53.1598 5.50128 53.6789 4.61481 53.3567Z" fill="rgb(25,25,99)" fill-rule="nonzero" />
							</g>
							<g id="Group 1993">
								<path id="Vector 6272" d="M4.92188 48.5967C5.17821 48.6227 5.43363 48.6487 5.68998 48.6747C5.91835 48.6979 6.14394 48.7713 6.35461 48.8985C7.29422 49.4649 7.60183 50.8921 7.04161 52.0853L6.21944 51.8727C6.75729 50.7268 6.4618 49.3563 5.55948 48.8121C5.35719 48.6886 5.14093 48.619 4.92188 48.5967Z" fill="rgb(25,25,99)" fill-rule="nonzero" />
							</g>
							<g id="Group 1994">
								<path id="Vector 6273" d="M4.97332 48.6023C4.20149 48.4973 3.37932 48.9923 2.95333 49.9004C2.41547 51.0463 2.71097 52.4168 3.61329 52.961C3.71863 53.0241 3.82676 53.0733 3.93769 53.1096C3.87243 53.0882 3.78481 53.0603 3.71863 53.0381C3.686 53.0279 3.64219 53.013 3.60956 53.0028C3.5443 52.9814 3.45669 52.9536 3.3905 52.9322C3.32524 52.9109 3.23763 52.883 3.17144 52.8607C3.13882 52.8505 3.09501 52.8357 3.06238 52.8255C2.99712 52.8041 2.9095 52.7762 2.84332 52.7549C2.77806 52.7335 2.69044 52.7057 2.62426 52.6834C2.59163 52.6732 2.54782 52.6583 2.51519 52.6481C2.44994 52.6267 2.36232 52.5989 2.29614 52.5776C2.23088 52.5562 2.14326 52.5274 2.07708 52.5061C2.04445 52.4949 2.00064 52.481 1.96801 52.4708C1.90275 52.4494 1.81514 52.4216 1.74895 52.4002C1.64828 52.3677 1.54854 52.3222 1.45346 52.2646C0.631289 51.7688 0.361894 50.5199 0.852211 49.4752C1.24093 48.6469 1.98945 48.1966 2.69323 48.2922C3.45391 48.3961 4.21362 48.4992 4.97332 48.6023Z" fill="rgb(0,0,85)" fill-rule="nonzero" />
							</g>
							<g id="Group 1995">
								<path id="Vector 6274" d="M1.36321 48.7646C1.16186 48.9532 0.986613 49.1918 0.854248 49.4759C0.555026 50.1139 0.539181 50.8279 0.759163 51.4008C0.683664 51.204 0.607226 51.0071 0.531713 50.8094C0.397485 50.4593 0.406802 50.0229 0.589504 49.6319C0.670607 49.4583 0.777796 49.3125 0.900844 49.1974C1.05467 49.0525 1.20847 48.9086 1.36321 48.7646Z" fill="rgb(0,0,85)" fill-rule="nonzero" />
							</g>
							<g id="Group 1996">
								<path id="Vector 6275" d="M3.93874 53.1105C3.87348 53.0891 3.78586 53.0613 3.71968 53.039C3.68705 53.0288 3.64324 53.0139 3.61061 53.0037C3.54535 52.9824 3.45773 52.9545 3.39155 52.9332C3.32629 52.9118 3.23868 52.8839 3.17249 52.8617C3.13986 52.8515 3.09606 52.8366 3.06343 52.8264C2.99817 52.805 2.91055 52.7772 2.84437 52.7558C2.77911 52.7345 2.69149 52.7066 2.62531 52.6843C2.59268 52.6741 2.54887 52.6593 2.51624 52.6491C2.45098 52.6277 2.36337 52.5998 2.29718 52.5785C2.23193 52.5571 2.14431 52.5284 2.07813 52.507C2.0455 52.4959 2.00169 52.4819 1.96906 52.4717C1.9038 52.4503 1.81618 52.4225 1.75 52.4012C2.51624 52.65 3.39713 52.195 3.83058 51.2729L6.22063 51.8728C5.74621 52.8849 4.77955 53.3835 3.93874 53.1105Z" fill="rgb(25,25,99)" fill-rule="nonzero" />
							</g>
							<g id="Group 1997">
								<path id="Vector 6276" d="M2.69434 48.292C3.45405 48.3951 4.21376 48.4991 4.97348 48.6021C5.17575 48.63 5.37338 48.6978 5.56075 48.8111C6.46308 49.3552 6.75858 50.7258 6.22071 51.8716L3.83065 51.2718C4.32097 50.2271 4.05157 48.9782 3.2294 48.4824C3.0588 48.3802 2.87796 48.3171 2.69434 48.292Z" fill="rgb(25,25,99)" fill-rule="nonzero" />
							</g>
							<g id="Group 1998">
								<path id="Vector 6277" d="M0.757724 51.3999C0.682225 51.203 0.605787 51.0062 0.530273 50.8084C0.616028 51.0313 0.760512 51.2188 0.956272 51.3368C1.45871 51.6404 2.10935 51.3683 2.40952 50.7295L3.83106 51.2709C3.34074 52.3155 2.27714 52.7594 1.45498 52.2635C1.13431 52.0713 0.898481 51.7648 0.757724 51.3999Z" fill="rgb(29,29,107)" fill-rule="nonzero" />
							</g>
							<g id="Group 1999">
								<path id="Vector 6278" d="M2.41011 50.7304C2.10995 51.3692 1.46024 51.6413 0.956867 51.3377C0.454431 51.034 0.289436 50.2708 0.588659 49.6319C0.888821 48.9931 1.53853 48.721 2.0419 49.0246C2.54528 49.3283 2.70934 50.0915 2.41011 50.7304Z" fill="rgb(38,38,120)" fill-rule="nonzero" />
							</g>
							<g id="Group 2000">
								<path id="Vector 6279" d="M0.900391 49.1974C1.05419 49.0535 1.20893 48.9096 1.36274 48.7647C1.90246 48.2596 2.63048 48.1212 3.22986 48.4825C4.05203 48.9783 4.32143 50.2272 3.83111 51.2719L2.40957 50.7305C2.7088 50.0917 2.54474 49.3284 2.04137 49.0247C1.67501 48.8037 1.23036 48.8882 0.900391 49.1974Z" fill="rgb(29,29,107)" fill-rule="nonzero" />
							</g>
						</g>
					</g>
					<path id="Vector 6280" d="M15.0692 39.4614C13.56 39.4614 12.9056 39.9304 12.7211 41.5201C12.5365 43.1098 12.3323 45.0264 12.598 46.0051C12.8637 46.9838 16.3835 47.0246 16.8748 46.4127C17.366 45.8008 17.1003 42.2341 16.7107 41.092C16.3229 39.9508 15.0692 39.4614 15.0692 39.4614Z" fill="rgb(72,96,191)" fill-rule="nonzero" />
					<path id="Vector 6281" d="M23.5987 55.8814C23.609 55.8526 23.7423 55.4347 23.6696 55.2054C23.5969 54.976 23.444 54.6974 22.9351 54.5127C22.4252 54.3279 22.0737 54.2508 22.0737 54.2508L20.4555 53.3594C19.721 53.4494 20.5105 54.3455 19.8683 54.7234C19.8011 54.7634 19.7331 54.8061 19.665 54.8506C20.0668 55.2462 20.3567 55.5341 20.4145 55.6139C20.5618 55.8154 20.5776 55.9872 20.5795 56.3447C20.5814 56.7013 20.2243 57.5611 20.2849 57.7793C20.3455 57.9976 20.6289 57.9223 20.6289 57.9223L21.149 57.3708C21.149 57.3708 21.2423 57.81 21.493 57.7747C21.7438 57.7394 22.0626 57.4711 22.0626 57.4711C22.0626 57.4711 22.2369 57.6614 22.4065 57.5481C22.5753 57.4348 22.8018 57.1841 22.8018 57.1841C22.8018 57.1841 22.9957 57.4813 23.2716 57.2185C23.5475 56.952 23.5885 55.9102 23.5987 55.8814Z" fill="rgb(255,156,120)" fill-rule="nonzero" />
					<path id="Vector 6282" d="M12.5186 45.5844C12.677 48.684 12.8476 50.1985 13.0797 50.9738C13.3118 51.7483 15.1948 50.919 15.9312 50.2941C16.6676 49.6692 16.8923 49.308 16.909 49.1826C16.9268 49.0572 17.1542 45.6865 17.1421 44.8991C17.13 44.1117 12.5186 45.5844 12.5186 45.5844Z" fill="rgb(72,96,191)" fill-rule="nonzero" />
					<path id="Vector 6283" d="M13.942 49.6533C13.7863 49.9792 12.8094 50.7657 13.1981 51.1613C13.5878 51.5569 16.3954 53.7873 18.2234 54.8421C20.0514 55.897 20.0514 55.897 20.0514 55.897C20.0514 55.897 21.8318 55.0901 21.4524 53.946C20.9034 53.2636 16.8522 49.0293 16.5427 48.8463C16.2342 48.6644 13.942 49.6533 13.942 49.6533Z" fill="rgb(72,96,191)" fill-rule="nonzero" />
				</g>
			</g>
			<g id="Group 2001">
				<path id="Vector 6284" d="M21.0765 77.2551C23.7145 78.8364 23.6241 81.3566 20.8742 82.8831C18.1243 84.4097 13.7581 84.3661 11.12 82.7847C8.48202 81.2034 8.57244 78.6833 11.3223 77.1567C14.0722 75.6301 18.4394 75.6737 21.0765 77.2551Z" fill="rgb(202,210,224)" fill-rule="nonzero" />
			</g>
		</g>
		<g id="Group 2002">
			<g id="Group 2003">
				<g id="Group 2004">
					<path id="Vector 6285" d="M16.708 57.6271L15.7768 57.0811L15.5605 56.7319L16.4918 57.2779L16.708 57.6271Z" fill="rgb(103,114,114)" fill-rule="nonzero" />
				</g>
				<g id="Group 2005">
					<path id="Vector 6286" d="M1.43318 52.6852L0.501953 52.1392L15.877 56.3103L16.8082 56.8563L1.43318 52.6852Z" fill="rgb(142,157,157)" fill-rule="nonzero" />
				</g>
				<g id="Group 2006">
					<path id="Vector 6287" d="M1.08782 53.1244L0.156602 52.5784L0 51.5486L0.931222 52.0946L1.08782 53.1244Z" fill="rgb(104,115,115)" fill-rule="nonzero" />
				</g>
				<g id="Group 2007">
					<path id="Vector 6288" d="M1.89607 49.9894L0.964844 49.4434L1.27525 49.5167L2.20648 50.0627L1.89607 49.9894Z" fill="rgb(144,159,159)" fill-rule="nonzero" />
				</g>
				<g id="Group 2008">
					<path id="Vector 6289" d="M0.931222 52.0944L0 51.5484L0.96479 49.4434L1.89601 49.9894L0.931222 52.0944Z" fill="rgb(143,158,158)" fill-rule="nonzero" />
				</g>
				<g id="Group 2009">
					<path id="Vector 6290" d="M1.89643 49.9895L2.20685 50.0629L1.33061 51.9738L1.43408 52.6852L16.8091 56.8563L17.045 57.2426L16.7085 57.627L16.4922 57.2778L1.08824 53.1244L0.931641 52.0946L1.89643 49.9895Z" fill="rgb(158,175,175)" fill-rule="nonzero" />
				</g>
			</g>
		</g>
	</g>
</svg>
