<svg viewBox="0 0 62 84.0002" xmlns="http://www.w3.org/2000/svg" xmlns:xlink="http://www.w3.org/1999/xlink" width="62.000000" height="84.000244" fill="none" customFrame="#000000">
	<g id="Inovasi">
		<g id="Group 1513">
			<path id="Vector 5180" d="M45.8595 80.5299C49.1851 82.4394 54.5931 82.4301 57.9393 80.5085C61.2855 78.5869 61.3024 75.4809 57.9768 73.5705C54.6512 71.661 49.2431 71.6703 45.897 73.5919C42.5517 75.5144 42.5348 78.6204 45.8595 80.5299Z" fill="rgb(189,189,187)" fill-rule="nonzero" />
			<g id="Group 1514">
				<g id="Group 1515">
					<path id="Vector 5181" d="M52.7064 70.3938C53.0277 70.7144 53.2488 70.8607 53.2741 71.3742C53.2985 71.8876 53.1533 72.6098 53.201 72.7077C53.2498 72.8056 51.7865 73.2706 50.815 73.0991C49.8436 72.9277 48.9827 72.8792 48.6258 73.0628C48.2689 73.2463 47.1382 74.0655 45.2075 74.0291C43.2767 73.9928 43.1418 73.3321 43.1418 73.1364C43.1418 72.9407 43.1175 72.5977 43.2037 72.4142C43.2899 72.2306 44.0271 71.5456 44.8018 71.2884C45.5756 71.0312 52.7064 70.3938 52.7064 70.3938Z" fill="rgb(33,36,48)" fill-rule="nonzero" />
					<path id="Vector 5182" d="M48.7602 68.9027C48.7358 69.16 47.8627 69.9185 47.8627 69.9185C47.8627 69.9185 45.0346 70.7749 44.2842 71.2884C43.5339 71.8019 43.4973 72.3769 43.5713 72.8419C43.6453 73.3069 44.6655 73.6247 46.2028 73.3432C47.74 73.0618 48.0108 72.3405 48.8464 72.3284C49.6829 72.3163 51.7607 72.512 52.4371 71.9855C53.1134 71.4599 53.2118 71.0433 53.1996 70.8718C53.1874 70.7004 52.9289 69.2326 52.6834 68.8049C52.4371 68.3772 48.7602 68.9027 48.7602 68.9027Z" fill="rgb(51,55,74)" fill-rule="nonzero" />
					<path id="Vector 5183" d="M49.6699 40.4648C48.6367 45.2604 47.9725 54.3362 48.0221 55.8533C48.0718 57.3704 49.3505 58.0796 51.1697 57.9081C52.9899 57.7367 53.8339 54.0668 53.8339 54.0668C53.8339 54.0668 54.6864 46.1401 54.145 43.6445C53.6054 41.1498 49.6699 40.4648 49.6699 40.4648Z" fill="rgb(32,43,84)" fill-rule="nonzero" />
					<path id="Vector 5184" d="M48.0226 55.8535C48.3177 58.9846 47.7032 68.4751 48.2437 69.6493C48.7852 70.8235 52.3018 71.1907 52.892 70.1879C53.2611 69.0874 53.8756 58.8384 53.9 57.0528C53.9243 55.2673 51.5149 53.8965 51.5149 53.8965L48.0226 55.8535Z" fill="rgb(32,43,84)" fill-rule="nonzero" />
					<path id="Vector 5185" d="M55.7371 22.1411C55.6059 21.896 53.308 21.6155 52.611 22.5455C50.4864 25.3794 48.8292 30.9801 48.6653 31.2736C48.5014 31.5672 48.195 33.3788 49.8344 33.9659C51.4738 34.553 58.065 28.2571 58.1474 26.9198C58.2289 25.5816 55.7371 22.1411 55.7371 22.1411Z" fill="rgb(208,228,240)" fill-rule="nonzero" />
					<path id="Vector 5186" d="M49.0432 29.4079C48.9776 29.3101 44.1897 27.7771 43.8131 27.7771C43.4366 27.7771 42.0417 29.0585 42.882 29.9689C43.7223 30.8803 47.4226 32.3779 48.9074 32.9398C50.3922 33.5017 50.4859 32.1812 50.4859 32.1812L49.0432 29.4079Z" fill="rgb(208,228,240)" fill-rule="nonzero" />
					<path id="Vector 5187" d="M43.6329 30.0276C44.076 30.0603 44.3055 30.0109 44.5678 29.489C44.8301 28.9671 44.2568 28.0865 44.2568 28.0865C44.2568 28.0865 43.8961 27.45 43.6338 27.3363C43.3715 27.2227 42.3711 27.026 41.7481 27.1248C41.1251 27.2227 40.1574 27.6951 39.8951 27.7771C39.6328 27.8582 39.8951 28.2505 39.8951 28.2505C39.8951 28.2505 39.5673 28.4956 39.6488 28.6913C39.7303 28.887 40.1574 28.9849 40.1574 28.9849C40.1574 28.9849 40.1087 29.4256 40.2558 29.5067C40.4038 29.5878 41.0755 28.9355 41.0755 28.9355L41.305 29.6204L42.2071 28.8376C42.2071 28.8376 42.5359 28.7938 42.8142 29.3297C43.0924 29.8645 43.6329 30.0276 43.6329 30.0276Z" fill="rgb(255,156,120)" fill-rule="nonzero" />
					<path id="Vector 5188" d="M43.7634 28.6411C43.6978 28.6411 42.9109 28.4128 42.5831 28.478C42.2552 28.5433 42.0744 29.0493 42.2552 29.1797C42.436 29.3102 43.206 29.5059 43.4196 29.6363C43.6332 29.7668 43.9283 29.8889 44.3545 29.8199C44.7808 29.751 44.8791 28.9188 44.8135 28.8051C44.747 28.6905 43.7634 28.6411 43.7634 28.6411Z" fill="rgb(255,156,120)" fill-rule="nonzero" />
					<path id="Vector 5189" d="M54.6215 81.5075C54.6215 81.5075 53.8 82.1076 53.7335 82.4906C53.6267 83.1112 53.7569 83.3265 53.7569 83.3265C53.7569 83.3265 54.7967 84.1037 56.0183 83.9882C57.9893 83.8018 58.9055 82.814 59.3654 82.2558C59.8244 81.6975 60.1954 81.1822 60.3434 81.035C60.4914 80.8877 61.9997 79.8412 61.9997 79.352C61.9997 78.8627 61.9997 78.5365 61.9997 78.5365C61.9997 78.5365 61.5125 77.5525 61.2783 77.5114C60.0783 77.3027 54.6215 81.5075 54.6215 81.5075Z" fill="rgb(33,36,48)" fill-rule="nonzero" />
					<path id="Vector 5190" d="M57.7205 76.5331C57.5565 76.8919 56.9823 77.8378 55.8675 78.8489C54.7527 79.86 54.0267 81.2178 53.9255 81.6847C53.8244 82.1515 53.8469 82.7424 53.8469 82.7424C53.8469 82.7424 54.8277 83.8271 56.6122 83.4133C58.3968 82.9996 59.1313 81.9689 60.0118 80.7695C60.5805 79.9942 61.8489 79.1695 61.8507 78.7949C61.8517 78.4202 61.7205 76.6962 61.0816 76.289C60.4418 75.8799 57.7205 76.5331 57.7205 76.5331Z" fill="rgb(51,55,74)" fill-rule="nonzero" />
					<path id="Vector 5191" d="M50.71 43.1813C50.71 43.1813 50.7868 46.4793 50.8645 48.3617C50.9423 50.2441 52.2884 50.0988 52.2257 50.1323C52.1629 50.1659 53.5653 62.1398 53.6889 62.4557C54.0627 63.4109 54.7606 64.2934 56.8019 62.9478C58.8431 61.6021 59.4577 60.4037 59.4829 59.9145C59.5073 59.4252 59.4651 53.1694 59.7181 51.2823C60.1453 48.0915 60.253 46.757 59.7612 44.5065C59.2694 42.2559 57.6881 39.5105 57.245 38.9719C56.8028 38.4342 50.71 43.1813 50.71 43.1813Z" fill="rgb(38,50,99)" fill-rule="nonzero" />
					<path id="Vector 5192" d="M49.1611 42.585C49.118 43.6147 48.9934 44.1095 49.014 44.3481C49.014 44.3481 49.1676 46.4905 53.3073 46.717C57.4469 46.9434 59.0273 45.074 59.3748 44.6836C59.6334 44.3938 59.6381 44.0462 59.6381 44.0462C59.6381 44.0462 59.2559 42.5626 58.928 42.2821C58.602 42.0016 49.1611 42.585 49.1611 42.585Z" fill="rgb(33,36,48)" fill-rule="nonzero" />
					<path id="Vector 5193" d="M53.7038 57.9332C53.7038 59.2052 53.213 60.9153 53.6898 62.4557C54.1666 63.9962 55.4641 67.254 56.0149 69.5484C56.5657 71.8427 56.8027 76.8172 57.1222 77.7472C57.4416 78.6773 61.4698 78.6288 61.57 77.0176C61.6993 74.9273 61.6084 67.487 60.8459 63.5237C60.0833 59.5603 58.4992 56.7096 58.4496 56.6118C58.4009 56.5139 53.7038 57.9332 53.7038 57.9332Z" fill="rgb(38,50,99)" fill-rule="nonzero" />
					<path id="Vector 5194" d="M58.3766 22.471C59.9016 24.3795 61.7677 27.7502 61.8164 29.2189C61.8661 30.6866 61.7949 33.7377 61.2534 35.9146C60.712 38.0915 59.6506 40.5676 59.4042 42.0847C59.1588 43.6018 58.2239 44.8618 55.8294 45.3436C53.1427 45.884 51.1043 45.3771 50.0467 44.4713C48.989 43.5664 49.1043 42.8386 49.1043 41.1015C49.1043 39.3645 49.1727 34.4804 49.4762 32.5066C49.8537 30.0539 50.4851 27.4483 51.8041 24.7998C53.2702 21.855 54.1208 21.7013 54.9573 21.554C55.7938 21.4068 58.3766 22.471 58.3766 22.471Z" fill="rgb(183,211,232)" fill-rule="nonzero" />
					<path id="Vector 5195" d="M53.901 20.0368C54.122 20.526 53.975 24.6115 53.5815 25.4921C53.1881 26.3728 55.5815 26.0102 56.2129 25.8099C58.0378 25.2321 58.9942 24.8398 58.9727 24.0197C58.9511 23.1996 58.6233 22.825 58.7216 21.8708C58.82 20.9165 59.1891 19.1058 59.2135 18.3482C59.2378 17.5896 56.4837 16.3418 56.4837 16.3418L53.901 20.0368Z" fill="rgb(255,156,120)" fill-rule="nonzero" />
					<path id="Vector 5196" d="M56.0162 18.0062C56.0406 18.1535 56.1305 21.0647 55.6059 21.896C55.0813 22.7282 54.0153 23.25 54.0153 23.25C54.0153 23.25 52.3103 23.5921 51.8672 23.4131C51.4241 23.2342 51.3754 22.8745 51.3426 22.5157C51.3098 22.1569 51.129 20.6071 51.129 20.6071C51.129 20.6071 50.2925 20.1664 50.3909 19.7591C50.4892 19.351 51.129 18.4218 51.129 18.4218C51.129 18.4218 50.8499 15.861 51.2274 14.9971C51.6049 14.1323 52.7684 13.6431 53.293 13.6431C53.8185 13.6431 56.0162 18.0062 56.0162 18.0062Z" fill="rgb(255,156,120)" fill-rule="nonzero" />
					<path id="Vector 5197" d="M56.031 19.2715C55.8839 18.813 56.2886 18.5483 56.889 18.6965C57.4905 18.8456 56.9762 20.0524 56.889 20.3786C56.8019 20.7047 56.4188 21.3245 56.0366 21.0151C55.6544 20.7047 56.031 19.2715 56.031 19.2715Z" fill="rgb(255,156,120)" fill-rule="nonzero" />
					<path id="Vector 5198" d="M59.5398 28.1592C57.2953 28.3633 57.0939 30.3063 56.7791 31.9268C56.4644 33.5474 55.2184 39.5498 55.448 41.8656C55.6775 44.1813 58.4878 44.0294 59.2419 42.8878C59.996 41.7463 61.6195 34.7318 61.701 33.0609C61.7816 31.3891 61.6298 29.1777 61.2363 28.7863C60.8438 28.394 59.5398 28.1592 59.5398 28.1592Z" fill="rgb(208,228,240)" fill-rule="nonzero" />
					<path id="Vector 5199" d="M52.0472 15.3064C52.4079 15.3549 53.2098 15.9755 53.2098 15.9755L53.3756 17.5253L54.081 18.0304C54.081 18.0304 54.54 19.5149 54.54 19.5633C54.54 19.6118 55.311 19.5633 55.311 19.5633C55.311 19.5633 55.5077 18.2587 56.1148 18.2093C56.7218 18.1608 56.8529 18.5681 57.1967 19.4003C57.5415 20.2324 58.1804 21.0637 58.1804 21.0637L58.7771 21.4234C58.7771 21.4234 59.0656 20.3461 59.3279 19.759C59.5902 19.1719 60.1148 16.2355 59.8853 15.0781C59.6558 13.9197 58.7705 13.382 58.7705 13.382C58.7705 13.382 59.0103 12.6971 56.0379 12.3383C53.0655 11.9795 51.5901 12.8275 51.1311 13.0074C50.672 13.1872 50.7376 14.655 50.7376 14.655L51.1507 15.2393L52.0472 15.3064Z" fill="rgb(41,25,37)" fill-rule="nonzero" />
				</g>
				<path id="Vector 5200" d="M53.8404 24.2295C53.6493 24.606 53.3795 24.7551 53.2792 25.2369C53.1799 25.7187 53.0938 26.193 53.0938 26.193L53.5668 25.7914C53.5668 25.7914 53.7776 25.4987 53.8057 25.4204C53.8338 25.3422 53.7916 24.9172 53.7982 24.783C53.8066 24.6489 53.8404 24.2295 53.8404 24.2295Z" fill="rgb(208,228,240)" fill-rule="nonzero" />
				<path id="Vector 5201" d="M57.1327 24.9273C55.5664 25.5843 53.8164 25.3149 53.8164 25.3149L53.5645 25.7613C53.5645 25.7613 53.7181 26.9486 53.778 27.0436C54.1621 27.1005 55.3087 27.1853 56.712 26.8666C58.1153 26.5478 59.9524 25.3075 59.988 24.9114C59.6742 24.1035 59.3116 23.275 59.0624 23.0132C58.8133 22.7513 58.7514 22.7578 58.7514 22.7578C58.7514 22.7578 58.7917 23.1968 58.7917 23.2788C58.7926 23.3589 58.6718 24.3532 57.1327 24.9273Z" fill="rgb(208,228,240)" fill-rule="nonzero" />
			</g>
			<g id="Group 1516">
				<g id="Group 1517">
					<g id="Group 1518">
						<path id="Vector 5202" d="M28.9287 28.2234L30.5278 27.299C31.1451 26.9421 31.9976 26.9877 32.9325 27.5245C33.6398 27.9308 34.2937 28.5543 34.837 29.2895L33.2379 30.214C32.6946 29.4787 32.0407 28.8553 31.3334 28.4489C30.3985 27.9112 29.5461 27.8656 28.9287 28.2234Z" fill="rgb(176,155,37)" fill-rule="nonzero" />
					</g>
					<g id="Group 1519">
						<path id="Vector 5203" d="M52.2983 52.3923L50.6992 53.3168C50.8603 53.2236 50.9596 53.026 50.9606 52.7455L52.5597 51.821C52.5587 52.1025 52.4594 52.3 52.2983 52.3923Z" fill="rgb(176,155,37)" fill-rule="nonzero" />
					</g>
					<g id="Group 1520">
						<path id="Vector 5204" d="M33.5156 23.7194L35.1147 22.795C35.2777 22.7009 35.5025 22.7139 35.7517 22.8574L34.1526 23.7819C33.9044 23.6384 33.6786 23.6253 33.5156 23.7194Z" fill="rgb(176,155,37)" fill-rule="nonzero" />
					</g>
					<g id="Group 1521">
						<path id="Vector 5205" d="M50.9741 48.4L52.5722 47.4756L52.5601 51.822L50.9619 52.7464L50.9741 48.4Z" fill="rgb(176,155,37)" fill-rule="nonzero" />
					</g>
					<g id="Group 1522">
						<path id="Vector 5206" d="M34.1523 23.7819L35.7514 22.8574L40.8775 25.8013L39.2784 26.7257L34.1523 23.7819Z" fill="rgb(176,155,37)" fill-rule="nonzero" />
					</g>
					<g id="Group 1523">
						<path id="Vector 5207" d="M46.7669 38.4689L48.366 37.5444C47.8086 37.8669 47.4433 38.5173 47.3843 39.4343C47.2437 41.6215 48.8044 44.4013 50.7539 45.5215C51.0031 45.6641 51.2457 45.7741 51.4789 45.8495C51.5464 45.871 51.6129 45.9017 51.6775 45.939C52.1609 46.2167 52.574 46.8961 52.5731 47.4757L50.974 48.4001C50.9759 47.8196 50.5628 47.1411 50.0784 46.8635C50.0129 46.8262 49.9464 46.7954 49.8798 46.774C49.6466 46.6985 49.404 46.5885 49.1548 46.446C47.2053 45.3258 45.6446 42.546 45.7852 40.3588C45.8442 39.4418 46.2095 38.7904 46.7669 38.4689Z" fill="rgb(176,155,37)" fill-rule="nonzero" />
					</g>
					<g id="Group 1524">
						<path id="Vector 5208" d="M52.3374 38.4873L50.7383 39.4118C50.8985 39.3186 51.0006 39.121 51.0015 38.8368L52.6006 37.9124C52.5997 38.1966 52.4976 38.3941 52.3374 38.4873Z" fill="rgb(176,155,37)" fill-rule="nonzero" />
					</g>
					<g id="Group 1525">
						<path id="Vector 5209" d="M39.7461 22.182L41.3452 21.2575C41.911 20.9304 42.6735 20.9425 43.5176 21.3619C43.5963 21.401 43.675 21.443 43.7537 21.4877L42.1546 22.4122C42.0768 22.3674 41.9981 22.3255 41.9185 22.2863C41.0745 21.8661 40.3119 21.8549 39.7461 22.182Z" fill="rgb(176,155,37)" fill-rule="nonzero" />
					</g>
					<g id="Group 1526">
						<path id="Vector 5210" d="M42.1533 22.4122L43.7524 21.4878C45.625 22.5632 47.1379 25.1697 47.1314 27.3094C47.1295 28.0745 46.9319 28.6774 46.5946 29.0846L44.9955 30.0091C45.3337 29.6018 45.5304 28.998 45.5323 28.2338C45.5389 26.0942 44.026 23.4876 42.1533 22.4122Z" fill="rgb(176,155,37)" fill-rule="nonzero" />
					</g>
					<g id="Group 1527">
						<path id="Vector 5211" d="M51.0132 34.4904L52.6122 33.5659L52.6001 37.9123L51.001 38.8358L51.0132 34.4904Z" fill="rgb(176,155,37)" fill-rule="nonzero" />
					</g>
					<g id="Group 1528">
						<path id="Vector 5212" d="M44.9951 30.0099L46.5942 29.0854L51.7203 32.0293L50.1212 32.9538L44.9951 30.0099Z" fill="rgb(176,155,37)" fill-rule="nonzero" />
					</g>
					<g id="Group 1529">
						<path id="Vector 5213" d="M42.1531 22.4121C44.0257 23.4875 45.5387 26.094 45.5321 28.2337C45.5302 28.9988 45.3326 29.6017 44.9953 30.009L50.1214 32.9528C50.616 33.2371 51.0151 33.9239 51.0132 34.4895L51.001 38.835C50.9992 39.4081 50.5907 39.6271 50.1139 39.3531C50.0502 39.3168 49.9865 39.272 49.9209 39.218C49.683 39.0195 49.4338 38.8443 49.179 38.6971C49.1172 38.6617 49.0544 38.6272 48.9916 38.5955C47.2961 37.7251 45.9049 38.4883 45.785 40.3568C45.6445 42.5439 47.2052 45.3238 49.1547 46.444C49.4038 46.5866 49.6465 46.6965 49.8797 46.772C49.9472 46.7934 50.0137 46.8242 50.0783 46.8615C50.5617 47.1392 50.9758 47.8185 50.9739 48.3981L50.9617 52.7445C50.9598 53.3083 50.5589 53.5376 50.0643 53.2533L34.0949 44.0816C33.6003 43.7973 33.2012 43.1087 33.2031 42.5449L33.22 36.6217C32.6747 36.7317 32.019 36.6022 31.3117 36.1959C29.4522 35.1279 27.9468 32.5493 27.9337 30.4172C27.9206 28.2654 29.4625 27.3717 31.3333 28.4462C32.0405 28.8525 32.6944 29.476 33.2377 30.2112L33.2546 24.2881C33.2565 23.7224 33.6574 23.495 34.152 23.7793L39.2781 26.7232C38.9137 25.8556 38.7161 24.9507 38.7582 24.125C38.8556 22.2417 40.2243 21.4402 41.9171 22.2827C41.9967 22.3254 42.0754 22.3674 42.1531 22.4121Z" fill="rgb(255,231,96)" fill-rule="nonzero" />
					</g>
					<g id="Group 1530">
						<path id="Vector 5214" d="M50.1211 32.9537L51.7202 32.0293C52.2148 32.3135 52.6139 33.0003 52.612 33.566L51.0129 34.4904C51.0148 33.9248 50.6157 33.238 50.1211 32.9537Z" fill="rgb(176,155,37)" fill-rule="nonzero" />
					</g>
				</g>
			</g>
			<path id="Vector 5215" d="M50.528 49.3115C49.9144 49.6899 49.5219 49.838 48.9243 49.9452C48.3266 50.0524 47.5088 50.0048 46.9823 50.3879C46.4549 50.7709 46.1242 50.5444 45.683 50.4326C45.2408 50.3217 45.0254 50.2714 44.8418 50.3142C44.6581 50.3571 44.5345 50.3459 44.3883 50.5789C44.2422 50.8119 44.1738 51.2853 44.1738 51.2853C44.1738 51.2853 44.7106 51.7391 45.3532 52.1016C45.9959 52.4641 46.0521 52.7493 46.9683 52.7418C47.8844 52.7344 49.4929 51.9516 50.0615 51.6767C50.6302 51.4018 51.5107 50.7513 51.6231 50.6861C51.7355 50.6199 50.528 49.3115 50.528 49.3115Z" fill="rgb(255,156,120)" fill-rule="nonzero" />
			<path id="Vector 5216" d="M49.4026 50.3133C49.6986 50.6189 48.7253 51.2032 48.0312 51.3542C47.337 51.5051 46.7946 51.6487 46.7946 51.6487C46.7946 51.6487 45.8794 51.9059 45.3576 51.6915C44.8358 51.4772 44.8807 51.1865 45.2901 51.0802C45.6995 50.973 46.2738 50.796 46.2738 50.796C46.2738 50.796 47.3239 50.0905 47.7454 50.0943C48.1679 50.0961 48.8199 49.7746 49.4026 50.3133Z" fill="rgb(255,156,120)" fill-rule="nonzero" />
			<path id="Vector 5217" d="M57.4059 41.6075C56.2096 41.2599 56.0345 40.6103 55.049 41.8199C54.0625 43.0295 49.847 49.1875 49.3365 49.8138C48.8259 50.44 50.2198 51.9683 51.5576 51.3318C52.8953 50.6953 59.0519 43.4247 59.2439 42.886C59.435 42.3492 57.4059 41.6075 57.4059 41.6075Z" fill="rgb(208,228,240)" fill-rule="nonzero" />
		</g>
		<g id="Group 1531">
			<path id="Vector 5218" d="M4.00035 65.2179C6.60086 66.7117 10.8314 66.7043 13.4488 65.2011C16.0661 63.698 16.0792 61.2685 13.4787 59.7747C10.8782 58.2809 6.6477 58.2883 4.03032 59.7915C1.41295 61.2946 1.39983 63.7241 4.00035 65.2179Z" fill="rgb(189,189,187)" fill-rule="nonzero" />
			<g id="Group 1532">
				<path id="Vector 5219" d="M6.0957 58.8409C6.20531 58.9025 6.23247 59.7551 6.27369 59.9592C6.31491 60.1643 6.50695 60.2183 6.65121 60.2453C6.79548 60.2724 6.89103 60.1699 6.95286 60.0953C7.01469 60.0208 6.92944 58.8978 7.06153 58.2995C6.65778 58.0973 6.0957 58.8409 6.0957 58.8409Z" fill="rgb(50,51,66)" fill-rule="nonzero" />
				<g id="Group 1533">
					<path id="Vector 5220" d="M7.65421 2.61673C7.50057 -0.0242872 11.0828 -1.12298 12.2398 1.5031C13.3976 4.12919 11.7142 6.93422 12.3063 9.09714C12.8983 11.2601 14.6426 12.1994 14.6426 12.1994C14.6426 12.1994 12.5461 14.1164 10.0542 12.1994C7.56334 10.2816 7.65421 2.61673 7.65421 2.61673Z" fill="rgb(31,19,28)" fill-rule="nonzero" />
					<path id="Vector 5221" d="M3.87597 57.2315C3.11436 58.0097 0.808939 60.8902 0.850156 61.7084C0.891373 62.5266 1.48248 62.343 2.89984 62.0849C4.31719 61.8267 5.00105 60.7765 5.15374 60.1978C5.30644 59.62 5.37857 59.5585 5.82729 59.2407C6.27507 58.922 6.68632 58.8894 6.92614 58.6266C7.38048 58.1289 7.13504 57.2259 7.02544 56.7898C6.9149 56.3537 4.48394 56.034 3.87597 57.2315Z" fill="rgb(50,51,66)" fill-rule="nonzero" />
					<path id="Vector 5222" d="M4.00863 56.7909C4.00863 56.7909 4.0536 56.9689 3.51026 57.7275C2.96693 58.486 2.40392 59.1486 2.57816 59.3946C2.75147 59.6397 3.43907 59.8485 3.97772 59.4943C4.51637 59.1402 5.27236 58.2801 5.86721 57.98C6.46113 57.6799 6.85177 57.5373 6.89674 57.0826C6.90236 57.0257 6.96044 55.1945 6.89767 55.1274C6.45739 54.655 4.45455 55.8143 4.00863 56.7909Z" fill="rgb(255,166,152)" fill-rule="nonzero" />
					<path id="Vector 5223" d="M12.6927 59.5641C12.437 60.6004 12.4445 61.8901 12.4885 62.5797C12.5653 63.7931 12.8623 65.4714 13.8309 65.5702C14.8089 65.6699 15.3457 64.588 15.6661 63.6878C15.9855 62.7876 15.6764 61.6274 15.7138 61.1782C15.7513 60.729 15.8028 60.1261 15.4881 59.6434C15.1602 59.142 12.6927 59.5641 12.6927 59.5641Z" fill="rgb(50,51,66)" fill-rule="nonzero" />
					<path id="Vector 5224" d="M12.964 59.3229C12.7514 60.3116 12.8919 60.6248 13.0596 61.3479C13.2563 62.1941 13.6563 62.4848 14.3964 62.3982C14.9547 62.3329 15.2872 61.6005 15.3491 60.7953C15.4109 59.9901 15.5411 59.7106 15.2807 59.445C15.0202 59.1794 12.964 59.3229 12.964 59.3229Z" fill="rgb(255,166,152)" fill-rule="nonzero" />
					<path id="Vector 5225" d="M2.44582 26.1377C1.44065 31.1392 1.99803 36.8676 2.39992 39.4499C2.8018 42.0322 2.92077 43.5083 3.39384 45.6899C3.71235 47.1595 6.99297 46.9647 7.48572 46.4196C7.9794 45.8735 7.98409 43.6322 8.12273 42.2344C8.44779 38.9662 8.78316 37.3634 9.0033 35.5443C9.22251 33.7252 8.85717 28.9828 8.41781 27.872C7.9794 26.7602 2.44582 26.1377 2.44582 26.1377Z" fill="rgb(32,43,84)" fill-rule="nonzero" />
					<path id="Vector 5226" d="M7.10254 30.4891C7.19434 31.2169 7.57749 34.6901 8.03464 35.3442C8.49179 35.9994 8.88524 36.0897 8.88524 36.0897C8.88524 36.0897 10.4478 45.3649 10.978 46.3099C11.5082 47.2558 14.3598 47.5829 14.7626 46.0005C15.1645 44.4181 15.7247 36.4718 15.5861 33.4851C15.3547 28.4752 14.713 28.0195 14.713 28.0195L7.10254 30.4891Z" fill="rgb(38,50,99)" fill-rule="nonzero" />
					<path id="Vector 5227" d="M10.9778 42.4182C10.9591 43.0547 10.5619 43.2914 10.5797 44.9828C10.5984 46.6742 12.2659 59.0806 12.4579 59.8401C12.7755 61.0963 15.4819 61.2258 15.6027 59.9678C15.672 59.2474 16.0617 50.6525 15.8791 48.2519C15.6964 45.8514 14.932 42.6326 14.932 42.1228C14.932 41.614 10.9778 42.4182 10.9778 42.4182Z" fill="rgb(38,50,99)" fill-rule="nonzero" />
					<path id="Vector 5228" d="M8.06285 42.7778C8.51532 45.1961 7.48204 55.3641 7.2263 56.0732C6.97056 56.7824 5.79302 57.5596 4.96865 57.5084C4.14428 57.4571 3.69275 57.0005 3.71149 56.8915C3.73022 56.7825 3.31804 46.5651 3.40984 44.9287C3.50071 43.2913 8.06285 42.7778 8.06285 42.7778Z" fill="rgb(32,43,84)" fill-rule="nonzero" />
					<path id="Vector 5229" d="M6.91352 9.92188C3.27786 10.4875 2.78136 10.6683 2.2858 10.7979C1.79025 10.9274 2.53218 20.8232 2.53218 20.8232C2.53218 20.8232 2.05723 26.8955 2.16777 27.7957C2.27831 28.6959 3.62072 30.6399 6.58284 30.9949C9.54401 31.35 11.4429 30.9325 12.9399 30.1152C14.4368 29.2979 14.8453 28.5757 14.8453 28.5757C14.8453 28.5757 14.5521 19.5186 14.5436 19.0787C14.4874 16.201 14.6626 16.0193 14.7151 15.0641C14.7675 14.1098 13.5057 10.3179 13.5057 10.3179C13.5057 10.3179 12.3553 9.87993 9.81849 9.66373C7.92993 9.50066 6.91352 9.92188 6.91352 9.92188Z" fill="rgb(48,64,128)" fill-rule="nonzero" />
					<path id="Vector 5230" d="M6.17565 10.1342C4.80419 10.916 4.19154 11.7203 5.10584 15.254C6.02014 18.7878 8.11292 19.5175 8.11292 19.5175C8.11292 19.5175 10.6394 18.3452 11.3729 14.1395C11.9996 10.5442 10.6272 9.92733 10.024 9.78101C9.42067 9.63378 6.17565 10.1342 6.17565 10.1342Z" fill="rgb(193,193,222)" fill-rule="nonzero" />
					<path id="Vector 5231" d="M5.55371 8.13086C5.81414 8.89781 5.7598 11.1493 5.74575 11.8985C5.7317 12.6478 6.68254 13.0327 7.9397 12.9348C9.19593 12.8379 10.0372 12.5518 10.2779 11.5025C10.5187 10.4532 10.4906 10.5342 10.2779 9.90707C10.0653 9.2799 10.6002 7.90255 10.6686 6.70227C10.7369 5.50198 9.69523 4.65674 9.69523 4.65674L5.55371 8.13086Z" fill="rgb(255,145,105)" fill-rule="nonzero" />
					<path id="Vector 5232" d="M6.11049 2.09583C5.89129 2.14989 4.57511 2.66893 4.36901 3.63718C4.16292 4.60542 4.21819 6.71992 4.30062 7.67417C4.38306 8.62936 5.40322 10.4661 5.97841 10.6842C6.55453 10.9023 6.79809 10.9582 7.48007 10.6842C8.16112 10.4102 9.05855 9.62465 9.73023 8.73749C10.4019 7.85126 10.978 6.25491 10.8684 4.67254C10.7588 3.09018 10.3204 1.86285 8.963 1.80788C7.60467 1.75472 6.11049 2.09583 6.11049 2.09583Z" fill="rgb(255,156,120)" fill-rule="nonzero" />
					<path id="Vector 5233" d="M2.28468 10.7979C1.43408 11.015 0.443902 11.6347 0.402685 13.0484C0.361468 14.4621 -0.566886 24.3551 0.543204 25.2143C1.65423 26.0736 3.80415 24.576 3.50813 23.9069C3.07158 22.9191 2.85425 17.829 2.81116 17.4087C2.71092 16.4452 3.00039 13.2171 2.78399 12.1491C2.54324 10.9665 2.28468 10.7979 2.28468 10.7979Z" fill="rgb(72,96,191)" fill-rule="nonzero" />
					<path id="Vector 5234" d="M14.5063 17.0873C15.3082 17.8617 18.2253 20.3862 20.0221 21.5427C21.8188 22.6992 21.3186 22.2407 22.1786 21.634C23.0385 21.0283 22.6601 18.5168 21.5416 17.119C20.423 15.7211 14.5353 10.5435 13.5058 10.3152C12.8763 11.5733 13.1292 14.1276 13.4431 15.545C13.4955 15.7826 14.5063 17.0873 14.5063 17.0873Z" fill="rgb(72,96,191)" fill-rule="nonzero" />
					<path id="Vector 5235" d="M20.4069 14.3548C19.768 13.5683 17.7183 12.956 17.8617 14.3641C18.005 15.7722 18.5062 17.609 19.0673 19.2351C19.6284 20.8613 19.412 21.1027 20.1971 21.6804C20.9821 22.2582 21.6912 22.0225 21.7952 22.0541C21.8992 22.0858 22.2449 21.8883 22.5418 21.4568C22.8388 21.0253 22.9128 19.62 22.5325 18.6779C22.1512 17.7366 20.4069 14.3548 20.4069 14.3548Z" fill="rgb(72,96,191)" fill-rule="nonzero" />
					<path id="Vector 5236" d="M19.9342 14.0605C20.0691 14.3093 19.0143 14.6941 18.6105 14.6298C18.2068 14.5665 17.9651 14.3186 17.9651 14.3186L17.7412 14.0194C17.7412 14.0194 16.751 13.7231 16.4887 13.5059C16.2264 13.2888 15.8573 12.0531 15.8573 12.0531C15.8573 12.0531 15.6025 10.7699 15.7721 10.6171C15.9416 10.4642 16.01 10.1605 16.5224 10.3002C17.0349 10.44 17.9838 10.7709 18.2649 10.9069C18.5459 11.043 19.3646 12.3784 19.3646 12.3784L19.6916 13.5134L19.9342 14.0605Z" fill="rgb(255,156,120)" fill-rule="nonzero" />
					<path id="Vector 5237" d="M18.6457 12.4938C18.6457 12.4938 18.1642 12.0176 17.8972 12.0884C17.6302 12.1593 17.4944 12.3242 17.3455 12.6094C17.1965 12.8945 17.1141 13.1843 16.7721 13.0548C16.4302 12.9262 16.4499 12.7594 16.4499 12.7594C16.4499 12.7594 16.1585 12.8703 15.9356 12.7631C15.7117 12.656 15.6621 12.4938 15.6621 12.4938L15.351 12.4435L15.1777 12.027L15.589 10.4455C15.589 10.4455 16.0967 10.1026 16.7084 10.2629C17.3202 10.4232 17.5825 10.5042 17.5825 10.5042L18.3647 10.9115L18.8331 11.5685C18.8331 11.5685 19.3333 12.0782 19.486 12.4966C19.6387 12.916 19.6902 13.5124 19.6902 13.5124C19.6902 13.5124 20.0387 13.9811 19.5038 14.1796C18.9689 14.3791 18.8125 14.2178 18.8125 14.2178L18.6457 12.4938Z" fill="rgb(255,156,120)" fill-rule="nonzero" />
					<path id="Vector 5238" d="M5.91823 2.90084C7.46767 3.2149 8.59182 3.00988 9.30471 3.43297C10.0176 3.85606 10.278 5.50645 10.2096 6.1746C10.1413 6.84278 10.1544 7.49791 10.1544 7.49791C10.1544 7.49791 10.5581 6.61447 10.7511 6.33491C10.9431 6.05442 10.5441 7.35068 10.5441 7.35068L10.3726 8.49038L11.3937 7.08042C11.3937 7.08042 12.0842 4.98459 11.7956 3.19721C11.508 1.41077 10.1132 0.719294 10.1132 0.719294C10.1132 0.719294 8.33046 -0.467022 6.20583 0.678285C4.0812 1.82359 4.31727 2.72381 4.2264 3.16086C4.13554 3.59698 3.86574 4.64724 4.2264 5.57448C4.29573 4.11511 4.62922 3.16086 4.94398 2.95584C5.26061 2.74989 5.91823 2.90084 5.91823 2.90084Z" fill="rgb(41,25,37)" fill-rule="nonzero" />
					<path id="Vector 5239" d="M10.4938 6.93792C10.4938 6.93792 10.6137 6.12903 10.9837 5.74695C11.3537 5.36487 11.4989 5.35648 11.5589 5.50092C11.7191 5.88766 11.3697 6.8503 11.1804 7.12986C10.9912 7.40851 10.416 7.47932 10.416 7.47932L10.4938 6.93792Z" fill="rgb(255,156,120)" fill-rule="nonzero" />
				</g>
				<path id="Vector 5240" d="M7.8023 12.8462C6.82898 12.8667 6.20508 12.4716 6.03365 12.2806C5.86222 12.0895 5.75261 11.6599 5.75636 11.2844C5.76011 10.9097 5.76011 10.9097 5.76011 10.9097L5.76011 10.5444C5.76011 10.5444 5.58118 11.2303 5.55401 11.5164C5.52685 11.8025 5.35073 12.7577 5.72732 13.3439C6.10484 13.93 7.13062 14.2897 7.13062 14.2897L7.93907 13.0438L7.8023 12.8462Z" fill="rgb(252,252,255)" fill-rule="nonzero" />
				<path id="Vector 5241" d="M10.228 9.55664C10.2777 10.0226 10.1418 11.153 9.47485 11.9805C8.80786 12.8081 7.80176 12.8462 7.80176 12.8462L7.93853 13.0438L8.89779 14.2898C8.89779 14.2898 10.0116 13.8359 10.6702 12.5425C11.3287 11.2499 10.57 10.2258 10.4351 9.9406C10.3479 9.75421 10.228 9.55664 10.228 9.55664Z" fill="rgb(252,252,255)" fill-rule="nonzero" />
			</g>
			<g id="Group 1534">
				<g id="Group 1535">
					<g id="Group 1536">
						<path id="Vector 5242" d="M21.7759 42.7554L20.1768 43.6799C20.7463 43.3509 21.1154 42.6781 21.1641 41.7322C21.2072 40.9093 21.0105 40.0026 20.6451 39.1368L22.2442 38.2124C22.6087 39.0781 22.8063 39.9849 22.7632 40.8077C22.7145 41.7536 22.3454 42.4265 21.7759 42.7554Z" fill="rgb(176,0,15)" fill-rule="nonzero" />
					</g>
					<g id="Group 1537">
						<path id="Vector 5243" d="M28.0063 41.2177L26.4072 42.1422C26.5684 42.049 26.6686 41.8514 26.6686 41.57L28.2677 40.6455C28.2667 40.9269 28.1674 41.1245 28.0063 41.2177Z" fill="rgb(176,0,15)" fill-rule="nonzero" />
					</g>
					<g id="Group 1538">
						<path id="Vector 5244" d="M9.22168 12.5452L10.8208 11.6208C10.9838 11.5266 11.2095 11.5397 11.4578 11.6823L9.85869 12.6067C9.61044 12.4642 9.38468 12.4511 9.22168 12.5452Z" fill="rgb(176,0,15)" fill-rule="nonzero" />
					</g>
					<g id="Group 1539">
						<path id="Vector 5245" d="M26.6811 37.2341L28.2793 36.3105L28.2671 40.6467L26.6689 41.5702L26.6811 37.2341Z" fill="rgb(176,0,15)" fill-rule="nonzero" />
					</g>
					<g id="Group 1540">
						<path id="Vector 5246" d="M9.8584 12.6066L11.4566 11.6831L16.1245 14.3642L14.5264 15.2877L9.8584 12.6066Z" fill="rgb(176,0,15)" fill-rule="nonzero" />
					</g>
					<g id="Group 1541">
						<path id="Vector 5247" d="M24.294 28.3353L25.893 27.4109C25.2841 27.7622 24.9075 28.5105 24.9038 29.5729C24.8982 31.4386 26.0495 33.6611 27.5849 34.9108C27.9952 35.2444 28.2818 35.8306 28.2809 36.3096L26.6818 37.2341C26.6828 36.7551 26.3961 36.1689 25.9858 35.8353C24.4504 34.5856 23.2991 32.363 23.3047 30.4973C23.3085 29.4341 23.686 28.6867 24.294 28.3353Z" fill="rgb(176,0,15)" fill-rule="nonzero" />
					</g>
					<g id="Group 1542">
						<path id="Vector 5248" d="M15.4473 12.2917L17.0464 11.3673C17.6197 11.0355 18.3953 11.0532 19.2497 11.4865C19.319 11.5219 19.3874 11.5592 19.4558 11.5984L17.8567 12.5228C17.7883 12.4837 17.7199 12.4464 17.6506 12.411C16.7962 11.9786 16.0206 11.9609 15.4473 12.2917Z" fill="rgb(176,0,15)" fill-rule="nonzero" />
					</g>
					<g id="Group 1543">
						<path id="Vector 5249" d="M28.0454 27.3045L26.4463 28.2289C26.6093 28.1348 26.7077 27.9317 26.7086 27.6539L28.3077 26.7295C28.3067 27.0072 28.2084 27.2103 28.0454 27.3045Z" fill="rgb(176,0,15)" fill-rule="nonzero" />
					</g>
					<g id="Group 1544">
						<path id="Vector 5250" d="M17.8564 12.5228L19.4555 11.5984C21.3282 12.6738 22.8411 15.2803 22.8355 17.42C22.8345 17.693 22.8074 17.9437 22.7605 18.1748L21.1614 19.0993C21.2083 18.8682 21.2354 18.6175 21.2364 18.3444C21.242 16.2048 19.7291 13.5982 17.8564 12.5228Z" fill="rgb(176,0,15)" fill-rule="nonzero" />
					</g>
					<g id="Group 1545">
						<path id="Vector 5251" d="M26.7212 23.3161L28.3203 22.3926L28.3081 26.7296L26.709 27.6541L26.7212 23.3161Z" fill="rgb(176,0,15)" fill-rule="nonzero" />
					</g>
					<g id="Group 1546">
						<path id="Vector 5252" d="M21.1611 19.0983L22.7602 18.1748L27.4282 20.8549L25.8291 21.7794L21.1611 19.0983Z" fill="rgb(176,0,15)" fill-rule="nonzero" />
					</g>
					<g id="Group 1547">
						<path id="Vector 5253" d="M17.8565 12.5227C19.7291 13.5981 21.242 16.2046 21.2364 18.3442C21.2355 18.6173 21.2083 18.868 21.1615 19.0991L25.8295 21.7802C26.3231 22.0634 26.7232 22.7512 26.7213 23.3169L26.7091 27.6548C26.7082 28.132 26.4187 28.3892 26.0084 28.2522C24.4711 27.7368 23.3114 28.6324 23.3058 30.4981C23.3001 32.3637 24.4515 34.5863 25.9868 35.836C26.3972 36.1696 26.6838 36.7558 26.6829 37.2348L26.6707 41.5709C26.6688 42.1365 26.266 42.3648 25.7733 42.0816L20.6472 39.1377C21.0116 40.0034 21.2092 40.9102 21.1661 41.733C21.0687 43.6183 19.701 44.4188 18.0073 43.5773C17.9286 43.5381 17.8499 43.4962 17.7712 43.4514C15.8986 42.376 14.3876 39.7704 14.3932 37.6308C14.3951 36.8639 14.5927 36.2628 14.93 35.8546L9.80296 32.9098C9.30927 32.6265 8.90927 31.9369 8.91114 31.3712L8.9636 13.1172C8.96547 12.5515 9.36829 12.3251 9.86104 12.6084L14.529 15.2895C14.4616 14.8757 14.441 14.4713 14.4756 14.0855C14.6396 12.2925 15.9998 11.574 17.6532 12.4118C17.7188 12.4462 17.7881 12.4835 17.8565 12.5227Z" fill="rgb(240,34,62)" fill-rule="nonzero" />
					</g>
					<g id="Group 1548">
						<path id="Vector 5254" d="M25.8291 21.7794L27.4282 20.855C27.9219 21.1383 28.3219 21.826 28.32 22.3917L26.7209 23.3161C26.7228 22.7514 26.3228 22.0627 25.8291 21.7794Z" fill="rgb(176,0,15)" fill-rule="nonzero" />
					</g>
				</g>
			</g>
			<g id="Group 1549">
				<path id="Vector 5255" d="M11.2999 32.1953C11.2521 32.1496 10.4905 31.5663 10.0792 31.4013C9.66892 31.2364 9.0469 30.1889 8.78273 30.0575C8.51855 29.9262 7.86562 30.8068 8.09794 31.6157C8.3312 32.4246 9.7242 34.3592 9.91998 34.6071C10.1158 34.8549 11.3945 35.0311 11.3945 35.0311C11.3945 35.0311 11.9462 35.2146 12.3687 35.087C12.7912 34.9603 13.1088 34.0377 13.1088 34.0377L12.2694 34.1076L11.964 33.9967L11.3177 33.2139L11.2999 32.1953Z" fill="rgb(255,156,120)" fill-rule="nonzero" />
				<path id="Vector 5256" d="M9.5931 30.5067C9.48069 30.2802 4.85578 25.0122 3.55833 23.9359C2.26089 22.8595 -0.25063 23.7159 0.416358 25.0942C1.08335 26.4725 7.67644 31.9381 8.16919 31.9735C8.661 32.0089 9.5931 30.5067 9.5931 30.5067Z" fill="rgb(72,96,191)" fill-rule="nonzero" />
				<path id="Vector 5257" d="M11.8987 33.3936L11.0359 32.2669C11.0359 32.2669 10.19 31.458 10.0073 31.9976C9.82465 32.5372 10.4307 33.2389 10.7249 33.4588C11.019 33.6787 11.7095 34.4224 11.7095 34.4224C11.7095 34.4224 12.0139 34.6898 12.3221 34.6255C12.6313 34.5612 12.2013 33.8642 12.2013 33.8642L11.8987 33.3936Z" fill="rgb(255,156,120)" fill-rule="nonzero" />
			</g>
		</g>
	</g>
</svg>
