<svg viewBox="0 0 62 84" xmlns="http://www.w3.org/2000/svg" xmlns:xlink="http://www.w3.org/1999/xlink" width="62.000000" height="84.000000" fill="none" customFrame="#000000">
	<g id="Integritas">
		<g id="Group 1496">
			<path id="Vector 5046" d="M15.1936 69.2524C12.3009 70.9123 7.59556 70.9043 4.68492 69.2335C1.77429 67.5628 1.75931 64.8623 4.65194 63.2025C7.54457 61.5417 12.2499 61.5507 15.1606 63.2214C18.0712 64.8922 18.0862 67.5926 15.1936 69.2524Z" fill="rgb(189,189,187)" fill-rule="nonzero" />
			<path id="Vector 5047" d="M34.5694 69.0944C32.1207 70.4998 28.1382 70.4928 25.6745 69.0785C23.2109 67.6642 23.1979 65.3792 25.6465 63.9738C28.0952 62.5684 32.0777 62.5754 34.5414 63.9897C37.0051 65.404 37.0181 67.689 34.5694 69.0944Z" fill="rgb(189,189,187)" fill-rule="nonzero" />
			<path id="Vector 5048" d="M53.6524 82.404C51.2037 83.8094 47.2212 83.8024 44.7575 82.3881C42.2939 80.9737 42.2809 78.6888 44.7295 77.2834C47.1782 75.878 51.1607 75.8849 53.6244 77.2993C56.0881 78.7126 56.1011 80.9986 53.6524 82.404Z" fill="rgb(189,189,187)" fill-rule="nonzero" />
			<g id="Group 1497">
				<g id="Group 1498">
					<g id="Group 1499">
						<path id="Vector 5049" d="M22.5933 35.0313C22.5933 35.0313 22.4713 36.055 22.2333 36.6743C21.9954 37.2935 21.8594 38.2387 21.8594 38.2387L22.8783 39.495L24.615 39.9949C24.698 40.0188 24.919 40.0963 24.98 40.0396C25.1029 39.9273 24.949 39.6858 24.852 39.6172C24.722 39.5258 24.555 39.5039 24.3961 39.496C24.2371 39.487 24.0731 39.488 23.9241 39.4304C23.8781 39.4125 23.8331 39.3886 23.8002 39.3519C23.7551 39.3032 23.7362 39.2376 23.7162 39.175C23.6502 38.9702 23.5602 38.7724 23.4482 38.5866C23.3672 38.4524 23.2712 38.2963 23.3272 38.1502C23.3612 38.0608 23.4442 38.0002 23.5282 37.9544C23.6051 37.9117 23.6861 37.8769 23.7691 37.8491C23.8141 37.8342 23.8621 37.8223 23.9081 37.8332C23.9441 37.8421 23.9751 37.865 24.0041 37.8888C24.3401 38.1592 24.569 38.5389 24.754 38.9285C24.861 39.1551 24.956 39.3877 25.057 39.6172C25.135 39.7942 25.187 40.0764 25.4459 39.9989C25.5959 39.9542 25.5739 39.8478 25.5369 39.7395C25.4839 39.5844 25.4739 39.4006 25.444 39.2386C25.4209 39.1143 25.4129 38.9364 25.355 38.8221L24.754 37.6463C24.754 37.6463 24.767 36.5043 24.835 36.231C24.903 35.9577 24.726 34.6616 24.726 34.6616L22.5933 35.0313Z" fill="rgb(255,156,120)" fill-rule="nonzero" />
						<path id="Vector 5050" d="M28.4466 11.6684C26.2469 11.4278 25.469 12.2995 25.017 13.2358C24.5641 14.172 23.9932 18.1387 23.9932 19.8134C23.9932 21.4882 23.9202 23.145 24.1382 23.9729C24.3551 24.8009 26.4569 24.9271 26.8558 23.9729C27.2538 23.0188 29.8134 13.4703 28.4466 11.6684Z" fill="rgb(222,222,255)" fill-rule="nonzero" />
						<path id="Vector 5051" d="M24.4639 22.6579C24.3909 22.7116 24.3469 22.1759 24.043 23.4163C23.7391 24.6567 23.4131 25.0165 23.1781 27.4118C22.9422 29.8071 22.1093 34.7945 22.1823 35.4794C22.2542 36.1642 24.6849 36.3798 24.9559 36.1274C25.2258 35.8749 27.0196 26.3314 27.0556 24.6418C27.0906 22.9521 24.4639 22.6579 24.4639 22.6579Z" fill="rgb(222,222,255)" fill-rule="nonzero" />
						<path id="Vector 5052" d="M30.9956 61.7722C31.5045 61.9034 31.9264 62.297 31.9534 62.784C31.9804 63.2701 31.9534 63.8236 31.9534 63.8236L30.0107 64.6337C30.0107 64.6337 29.1008 64.4717 28.7749 64.742C28.4489 65.0124 27.566 65.6743 26.0442 66.4168C24.5224 67.1592 23.8565 66.9564 23.4086 66.9167C22.9607 66.8759 22.6617 66.4843 22.6477 65.89C22.6337 65.2956 22.7397 64.9368 23.0197 64.6774C23.2996 64.418 30.9956 61.7722 30.9956 61.7722Z" fill="rgb(33,36,48)" fill-rule="nonzero" />
						<path id="Vector 5053" d="M36.631 64.5076C36.9399 64.5583 37.3299 64.6229 37.4109 65.2719C37.4919 65.9199 37.4569 66.2678 37.4569 66.2678C37.4569 66.2678 36.677 67.2518 36.362 67.6563C36.048 68.0618 35.1392 69.4046 34.3593 70.0288C33.5794 70.6539 32.7754 70.9084 31.5996 70.7692C30.4238 70.6301 30.0738 70.3985 30.1088 69.9353C30.1438 69.4722 30.4697 69.0329 31.0407 68.4077C31.6126 67.7835 36.631 64.5076 36.631 64.5076Z" fill="rgb(33,36,48)" fill-rule="nonzero" />
						<path id="Vector 5054" d="M27.8916 60.6502C27.9186 60.8659 27.0477 61.8389 27.0477 61.8389C27.0477 61.8389 23.7201 63.7432 23.2722 64.2968C22.8242 64.8504 22.7832 65.3772 22.7832 65.5253C22.7832 65.6734 22.9192 66.3085 23.5851 66.4437C24.251 66.5788 25.8408 66.2002 26.9277 65.4716C28.0145 64.7421 28.2315 64.2024 28.7614 64.1885C29.2914 64.1756 31.3971 63.4053 31.5471 62.8517C31.6971 62.2981 31.2481 60.853 31.1801 60.4345C31.1121 60.0151 27.8916 60.6502 27.8916 60.6502Z" fill="rgb(51,55,74)" fill-rule="nonzero" />
						<path id="Vector 5055" d="M33.5363 63.2343C33.5923 63.4192 32.7654 65.1903 32.7654 65.1903C32.7654 65.1903 30.4597 68.1303 30.4247 68.4891C30.3897 68.8479 30.4247 69.6122 30.4247 69.6122C30.4247 69.6122 30.8437 70.3179 32.1715 70.2603C33.4994 70.2026 34.8602 69.0447 35.2741 68.4086C35.6881 67.7725 36.491 66.557 36.491 66.557C36.491 66.557 37.1549 66.0242 37.2009 65.4925C37.2469 64.9607 37.0959 63.941 37.0379 63.5474C36.9799 63.1538 33.5363 63.2343 33.5363 63.2343Z" fill="rgb(51,55,74)" fill-rule="nonzero" />
						<path id="Vector 5056" d="M25.46 31.1578C25.0621 36.9205 25.914 48.09 26.115 49.6395C26.3159 51.189 30.1874 50.7865 30.5414 49.6514C30.8943 48.5174 30.8673 40.1437 30.9763 37.5506C31.0853 34.9575 30.0255 31.0415 30.0255 31.0415L25.46 31.1578Z" fill="rgb(32,42,84)" fill-rule="nonzero" />
						<path id="Vector 5057" d="M27.3353 33.8226C27.3353 34.2818 27.1453 38.9542 27.7433 39.7652C28.3412 40.5753 29.509 41.0076 29.509 41.0076C29.509 41.0076 31.0888 51.4337 31.7137 53.2158C32.3386 54.9988 36.0612 53.9184 36.7131 52.8102C37.365 51.703 37.544 50.071 37.544 50.071C37.544 50.071 36.818 44.8153 37.172 43.5182C37.525 42.2221 38.0139 37.9811 37.8789 35.3344C37.7439 32.6876 36.955 31.2822 36.0042 30.1482C35.0533 29.0141 30.8418 27.6902 29.537 28.7706C28.2312 29.852 27.3353 33.8226 27.3353 33.8226Z" fill="rgb(38,50,99)" fill-rule="nonzero" />
						<path id="Vector 5058" d="M25.4321 31.4342C25.4461 32.6766 25.3511 33.4548 25.4461 33.8872C25.5411 34.3195 26.5189 35.3055 29.9435 35.7776C33.367 36.2507 35.2508 35.6016 35.9187 35.2508C36.5876 34.8999 37.6515 34.244 37.6195 33.4637C37.5885 32.6835 36.4786 30.4204 36.4786 30.4204L25.4321 31.4342Z" fill="rgb(33,36,48)" fill-rule="nonzero" />
						<path id="Vector 5059" d="M32.1483 45.0854C32.1213 49.1913 31.4024 48.414 31.4704 50.3263C31.5384 52.2376 32.6822 63.0364 32.7902 64.4408C32.8992 65.8452 37.0797 65.387 37.2116 64.1625C37.3046 63.2948 38.0295 58.4157 37.8126 52.9055C37.5956 47.3953 37.4466 49.4139 37.4466 49.4139L32.1483 45.0854Z" fill="rgb(38,50,99)" fill-rule="nonzero" />
						<path id="Vector 5060" d="M26.1152 49.6388C26.4382 51.6227 26.7471 60.4605 27.0481 61.4604C27.3481 62.4603 29.2238 62.5139 30.1197 62.4056C31.0166 62.2972 31.2336 61.1632 31.2336 61.1632C31.2336 61.1632 31.7705 53.3272 31.4915 50.5423C31.2136 47.7573 30.4587 46.3013 30.4587 46.3013L26.1152 49.6388Z" fill="rgb(32,42,84)" fill-rule="nonzero" />
						<path id="Vector 5061" d="M37.0796 32.3577C36.3467 33.6995 34.161 34.8186 30.7494 34.5215C27.3388 34.2233 25.4881 32.6619 25.3251 32.2832C25.1612 31.9055 25.922 24.2614 25.6781 22.6403C25.4331 21.0192 25.3551 18.0365 25.5721 16.0109C25.7891 13.9854 26.147 12.9179 26.8079 12.2838C27.2779 11.8326 27.8438 11.5503 28.8767 11.5771C29.9095 11.604 30.9924 11.2034 32.9491 11.6368C34.9059 12.0701 38.9104 15.185 39.1283 15.7525C39.3453 16.3201 38.7204 20.5332 38.2585 23.0458C37.7975 25.5574 37.0796 32.3577 37.0796 32.3577Z" fill="rgb(193,193,222)" fill-rule="nonzero" />
						<path id="Vector 5062" d="M29.1054 16.3585L27.3057 30.6867L28.3725 32.6705C28.3725 32.6705 29.5224 31.3685 29.5894 31.2453C29.6563 31.122 30.0293 16.8644 29.9713 16.5325C29.9143 16.2015 29.1054 16.3585 29.1054 16.3585Z" fill="rgb(41,25,37)" fill-rule="nonzero" />
						<path id="Vector 5063" d="M38.1228 14.7266C36.846 14.5377 35.5412 16.1041 35.0252 17.1308C34.5093 18.1575 31.4657 27.2061 31.4387 28.1244C31.4117 29.0428 33.5284 30.7702 35.0783 29.4612C36.628 28.1513 39.0197 22.1282 39.3997 19.9138C39.7796 17.6993 39.4587 16.2482 39.1277 15.7543C38.7977 15.2583 38.1228 14.7266 38.1228 14.7266Z" fill="rgb(222,222,255)" fill-rule="nonzero" />
						<path id="Vector 5064" d="M28.7031 10.6119C28.9751 12.1067 28.5402 13.3849 28.8841 14.2854C29.0131 14.6233 29.5 14.6472 29.868 14.7416C30.4819 14.8996 31.1128 14.9354 31.7467 14.6094C32.7606 14.0876 34.1194 12.8084 34.3914 12.5391C34.6634 12.2687 33.8665 11.5849 33.7935 11.3325C33.7215 11.08 33.4315 9.87443 33.5215 9.02761C33.6125 8.1818 33.9744 6.50707 33.8295 5.71393C33.6845 4.92179 28.8661 6.77641 28.8661 6.77641L28.7031 10.6119Z" fill="rgb(255,156,120)" fill-rule="nonzero" />
						<path id="Vector 5065" d="M34.0711 11.7339C34.0711 11.7339 33.7621 13.2148 31.7184 14.003C30.2725 14.5606 29.7496 14.5158 29.7496 14.5158L29.5986 14.9939L30.5965 16.3695C30.5965 16.3695 31.2264 16.5215 32.9282 15.5296C34.631 14.5377 34.9909 13.4315 34.7799 12.8411C34.569 12.2497 34.214 11.5629 34.123 11.4904C34.032 11.4188 33.8231 11.397 33.8231 11.397L34.0711 11.7339Z" fill="rgb(252,252,255)" fill-rule="nonzero" />
						<path id="Vector 5066" d="M29.7483 14.516C29.3134 14.3599 29.0144 14.1472 28.9464 13.9306C28.8785 13.7149 28.8005 13.2279 28.7975 13.1434C28.7945 13.0589 28.2935 13.696 28.2566 14.027C28.2196 14.3579 28.1346 15.168 28.4125 15.8876C28.7045 15.5735 29.6254 14.9573 29.6254 14.9573L29.7483 14.516Z" fill="rgb(252,252,255)" fill-rule="nonzero" />
						<path id="Vector 5067" d="M32.9241 6.84789C32.9241 6.84789 33.2171 9.98367 33.0691 10.8096C32.9211 11.6355 30.9674 13.4206 30.4064 13.6184C29.8445 13.8162 29.0296 13.6005 28.8486 13.4922C28.6676 13.3838 27.5448 11.6902 27.0919 10.2501C26.6389 8.80988 26.313 6.34301 26.404 5.44252C26.495 4.54203 26.7479 4.38003 28.5777 3.98446C30.4075 3.58889 32.0652 3.58789 32.0652 3.58789L32.9241 6.84789Z" fill="rgb(255,156,120)" fill-rule="nonzero" />
						<path id="Vector 5068" d="M27.6793 5.96527C29.913 6.27438 30.6989 5.35303 31.0159 5.85395C31.2529 6.22966 31.3329 6.97607 31.6848 7.06652C32.0368 7.15697 32.6517 7.71157 32.6517 7.71157L32.8877 8.64286L33.2496 8.64286C33.2496 8.64286 33.0577 7.75232 33.4486 7.20665C33.8406 6.661 33.4656 8.95195 33.5056 9.49463C33.5456 10.0373 33.5456 10.0373 33.5456 10.0373C33.5456 10.0373 34.1625 9.12192 34.3615 6.74449C34.5285 4.74773 34.2635 3.3165 33.6656 2.41603C33.0677 1.51554 32.0628 1.46187 32.0628 1.46187C32.0628 1.46187 30.9299 0.561385 28.5752 1.22732C26.2205 1.89323 26.0395 3.29762 26.0576 3.72998C26.0756 4.16233 25.8246 5.76153 26.5755 7.8696C26.3915 6.03684 26.4385 5.85395 26.5655 5.67406C26.6914 5.49715 26.6375 5.82117 27.6793 5.96527Z" fill="rgb(41,25,37)" fill-rule="nonzero" />
						<path id="Vector 5069" d="M33.414 7.9213C33.383 7.78115 33.3281 7.0566 33.853 6.85384C34.3779 6.65107 34.0729 7.37563 34.0959 7.99186C34.1189 8.60709 33.845 9.22331 33.539 9.16865C33.2341 9.11399 33.414 7.9213 33.414 7.9213Z" fill="rgb(255,156,120)" fill-rule="nonzero" />
						<path id="Vector 5070" d="M33.6489 27.3046C32.3811 27.0164 33.099 26.4061 31.6172 27.2877C30.1354 28.1693 23.1783 32.5266 22.8163 32.9589C22.4543 33.3913 23.2873 35.5163 23.9391 35.5878C24.5911 35.6594 34.2578 30.2535 34.9217 29.5817C35.5837 28.9088 33.6489 27.3046 33.6489 27.3046Z" fill="rgb(222,222,255)" fill-rule="nonzero" />
						<path id="Vector 5071" d="M22.8387 33.1218C22.6647 33.1984 22.5037 33.3077 22.3157 33.3653C21.9948 33.4647 21.6678 33.5005 21.3419 33.5701C21.3419 33.5701 18.3343 34.1465 18.0083 34.1644C17.6823 34.1823 16.6495 34.0561 16.6495 34.0561L16.8124 34.9745C16.8124 34.9745 15.8166 35.9833 15.7975 36.1632C15.7795 36.3431 16.1235 36.523 16.1235 36.523C16.1235 36.523 16.5404 37.0994 16.6484 37.0994C16.7574 37.0994 17.1553 37.0994 17.1553 37.0994L18.3152 37.0994C18.3152 37.0994 19.601 37.3151 20.3079 37.0994C21.0149 36.8838 24.1015 36.3073 24.6414 35.1365C24.6944 35.0212 24.7894 34.9824 24.8813 34.9089C24.9763 34.8333 25.0053 34.6982 25.0183 34.5839C25.0453 34.3493 25.0343 34.1068 24.9603 33.8822C24.9113 33.7331 24.7873 33.6267 24.6684 33.5283C24.5424 33.424 24.4074 33.3315 24.2654 33.251C24.1254 33.1715 24.0104 33.1526 23.8515 33.1288C23.5725 33.087 23.1945 32.9906 22.9196 33.088C22.8937 33.099 22.8667 33.1099 22.8387 33.1218Z" fill="rgb(230,125,87)" fill-rule="nonzero" />
					</g>
				</g>
				<g id="Group 1500">
					<g id="Group 1501">
						<path id="Vector 5072" d="M16.1445 30.0516C16.1775 30.2146 16.6555 31.8794 16.5005 32.435C16.3455 32.9906 16.6745 34.8691 16.6905 34.9775C16.7064 35.0858 16.6894 36.8271 16.8394 37.1839C16.9894 37.5397 17.3933 37.2416 17.5423 37.0279C17.6913 36.8142 18.4732 34.5948 18.4732 34.5948L18.2432 31.7453L17.6743 29.6104L16.1445 30.0516Z" fill="rgb(255,156,120)" fill-rule="nonzero" />
						<path id="Vector 5073" d="M13.6992 23.6521C15.29 22.8431 16.5939 22.6115 16.7708 21.8452C16.9478 21.0789 16.0529 14.0688 15.681 12.6973C15.309 11.3247 14.2971 9.61415 10.6506 10.4848C9.28578 10.8098 13.6992 23.6521 13.6992 23.6521Z" fill="rgb(72,96,191)" fill-rule="nonzero" />
						<path id="Vector 5074" d="M18.2536 31.1878C16.9698 31.5436 15.7919 31.8378 15.7099 31.8368C15.628 31.8348 13.7002 23.651 13.7002 23.651C13.7002 23.651 16.1389 19.742 16.6088 21.2756C16.8628 22.1094 17.6837 25.0454 18.2536 31.1878Z" fill="rgb(72,96,191)" fill-rule="nonzero" />
						<path id="Vector 5075" d="M5.82021 63.272C6.06718 63.4986 6.33015 63.7818 6.26714 64.252C6.20413 64.7221 5.70023 65.4635 5.51223 65.717C5.32525 65.9704 5.13029 67.4732 4.9773 68.0487C4.8243 68.6242 4.3324 69.4163 3.77744 69.6409C3.22252 69.8645 2.13166 69.8854 1.42674 69.456C0.721846 69.0267 0.894797 68.7365 0.826812 68.159C0.758828 67.5816 2.04766 66.4008 2.34862 66.1533C2.64863 65.9058 5.82021 63.272 5.82021 63.272Z" fill="rgb(33,36,48)" fill-rule="nonzero" />
						<path id="Vector 5076" d="M14.4984 61.9631C14.3574 62.0476 13.8665 62.3458 13.8625 62.6946C13.8585 63.0425 13.8604 63.2333 13.9524 63.4669C14.0444 63.7015 14.9633 64.3167 15.4013 64.9051C15.8392 65.4935 16.4081 66.7478 17.115 67.1831C17.8219 67.6184 18.2559 67.7049 19.2138 67.4723C20.1716 67.2398 20.5526 66.5172 20.4926 65.8851C20.4326 65.253 20.4136 64.9697 19.5277 64.2829C18.6398 63.5951 14.4984 61.9631 14.4984 61.9631Z" fill="rgb(33,36,48)" fill-rule="nonzero" />
						<path id="Vector 5077" d="M2.45896 62.477C2.45896 62.477 2.45796 63.6995 2.01102 64.6457C1.56507 65.5919 1.06214 66.8293 0.923151 67.546C0.784161 68.2626 0.903164 68.7883 1.85604 69.1551C2.31799 69.333 3.25686 69.4046 3.6908 69.1849C4.12376 68.9652 4.4497 68.4832 4.69967 67.692C4.94964 66.9009 4.98064 66.3155 5.3086 65.6217C5.63656 64.928 5.91253 64.7888 6.07449 64.2422C6.23548 63.6955 6.04648 63.0485 6.07248 62.5585C6.09848 62.0685 2.45896 62.477 2.45896 62.477Z" fill="rgb(51,55,74)" fill-rule="nonzero" />
						<path id="Vector 5078" d="M13.6719 59.9096C13.6769 59.9494 13.6749 62.0555 13.9258 62.6866C14.1768 63.3178 15.0457 63.7352 15.5616 64.4101C16.0775 65.0849 16.4795 65.8801 17.0534 66.374C17.6274 66.869 18.3743 67.2626 19.1521 66.9535C19.9301 66.6444 20.461 66.2419 20.417 65.7121C20.335 64.7182 20.239 64.5592 19.8901 64.1497C19.5421 63.7412 17.9363 62.314 17.6903 61.9621C17.4444 61.6093 17.0884 59.5976 17.0444 59.4535C17.0005 59.3103 13.6719 59.9096 13.6719 59.9096Z" fill="rgb(51,55,74)" fill-rule="nonzero" />
						<path id="Vector 5079" d="M2.66135 28.2109C2.20841 30.2196 1.69547 31.8576 1.54348 36.3212C1.39149 40.7849 1.85744 46.7821 2.1154 50.4218C2.24039 52.1909 5.11502 51.6493 5.80292 51.1752C6.49082 50.7011 7.30374 49.3106 7.30374 49.3106C7.30374 49.3106 8.66257 41.5024 8.62257 39.7224C8.59859 38.6619 9.58146 39.4133 9.96239 37.7713C10.2214 36.6572 10.2764 33.3017 10.1844 32.3058C9.95641 29.8439 2.66135 28.2109 2.66135 28.2109Z" fill="rgb(38,50,99)" fill-rule="nonzero" />
						<path id="Vector 5080" d="M7.45996 31.4301C7.45996 31.4301 7.57295 37.2942 8.11289 39.0325C8.65283 40.7709 9.39074 39.2184 10.0046 41.3633C10.6186 43.5081 12.0234 49.9914 12.3933 50.8143C12.7633 51.6373 13.3392 52.2803 14.4811 52.2734C15.6229 52.2664 17.4917 51.9225 17.3477 49.7936C17.2037 47.6646 17.0688 43.5608 16.8958 40.2948C16.7228 37.0278 16.3648 31.9649 14.7761 29.6133C13.1872 27.2627 7.45996 31.4301 7.45996 31.4301Z" fill="rgb(38,50,99)" fill-rule="nonzero" />
						<path id="Vector 5081" d="M13.302 48.1925C13.005 48.601 12.0431 49.0284 12.1521 50.8433C12.2611 52.6581 13.486 60.4106 13.7609 61.2256C14.0779 61.9283 14.8468 62.3736 15.8257 62.3786C17.0335 62.3835 17.5874 61.9919 17.5895 60.8569C17.5915 59.7218 17.7384 51.1007 17.1525 48.4956C16.5686 45.8906 13.302 48.1925 13.302 48.1925Z" fill="rgb(38,50,99)" fill-rule="nonzero" />
						<path id="Vector 5082" d="M7.30394 49.3106C6.98297 55.117 6.1811 61.7474 6.1631 62.792C6.14409 63.8366 2.52258 63.8296 2.24359 63.2482C1.96363 62.6668 1.94462 53.0448 2.16362 49.4955C2.38158 45.9462 7.30394 49.3106 7.30394 49.3106Z" fill="rgb(38,50,99)" fill-rule="nonzero" />
						<path id="Vector 5083" d="M14.8737 29.7655C14.5817 31.2852 15.0026 32.5633 9.77234 32.8148C5.60189 33.0156 2.4553 31.642 2.46229 30.2078C2.47028 28.7736 2.24033 25.3674 2.01435 22.824C1.78739 20.2806 0.606539 14.2575 1.32443 13.6324C2.04233 13.0072 4.77 11.3593 6.05383 10.9767C7.33766 10.594 10.6762 10.4141 11.9791 10.4956C13.7368 10.6049 15.1556 13.9147 14.7387 19.4289C14.3997 23.9283 14.8737 29.7655 14.8737 29.7655Z" fill="rgb(193,193,222)" fill-rule="nonzero" />
						<path id="Vector 5084" d="M9.48438 15.7167L9.80934 31.1471L10.9402 32.0366C10.9402 32.0366 12.0621 31.1133 12.029 30.3788C11.9961 29.6443 10.6532 16.1629 10.2783 15.5288C9.9783 15.5556 9.48438 15.7167 9.48438 15.7167Z" fill="rgb(41,25,37)" fill-rule="nonzero" />
						<path id="Vector 5085" d="M10.0838 10.5016C11.5546 10.5324 12.7795 11.3792 13.0794 14.7098C13.3794 18.0404 10.9197 24.0287 10.9197 24.0287L11.1677 34.6595C11.1677 34.6595 12.1046 35.1446 12.3045 35.1207C12.5045 35.0969 16.296 34.3494 15.976 32.8337C15.6561 31.318 14.8922 26.9597 14.8742 25.7203C14.8562 24.4809 15.1672 18.1657 14.8742 15.5298C14.5812 12.894 13.8703 11.6645 13.2134 11.0711C12.5565 10.4778 12.2545 10.441 12.0045 10.4002C11.7546 10.3585 10.0398 10.3217 10.0838 10.5016Z" fill="rgb(64,84,168)" fill-rule="nonzero" />
						<path id="Vector 5086" d="M10.8121 11.1704C10.8121 11.1704 12.33 11.8273 12.4629 14.3499C12.5959 16.8724 10.9201 24.0286 10.9201 24.0286L10.9791 27.6464C10.9791 27.6464 13.9307 20.3362 14.0977 18.4796C13.5138 17.7997 13.5138 17.7997 13.5138 17.7997L14.2977 16.3208C14.2977 16.3208 14.1477 14.0706 13.6138 12.7119C13.0798 11.3532 11.613 10.4965 10.9961 10.4607C10.3782 10.4249 10.8121 11.1704 10.8121 11.1704Z" fill="rgb(84,112,222)" fill-rule="nonzero" />
						<path id="Vector 5087" d="M10.9202 24.0295L6.74371 18.1188C6.74371 18.1188 5.40987 15.5137 4.484 14.2704C3.55812 13.027 3.74209 12.4138 3.97506 12.215C4.20803 12.0162 7.76057 10.6406 7.76057 10.6406C7.76057 10.6406 5.65984 11.072 5.59286 11.072C5.52588 11.072 2.24131 12.4973 1.25743 13.7078C0.273548 14.9174 1.52439 19.7249 1.74137 22.0119C1.95836 24.2989 1.97434 29.1889 1.64138 31.3606C1.30842 33.5323 2.55825 34.2946 4.17605 34.8751C5.79385 35.4555 7.59461 35.5082 10.3623 35.5897C11.0292 35.3233 11.1681 34.6614 11.1681 34.6614L10.9202 24.0295Z" fill="rgb(64,84,168)" fill-rule="nonzero" />
						<path id="Vector 5088" d="M9.23369 25.9242C8.24383 25.0694 5.51519 27.1268 5.66617 28.0481C5.81715 28.9695 14.467 32.309 14.823 32.5863C15.1789 32.8626 15.6278 33.6985 16.0768 33.77C16.5267 33.8416 17.0097 33.7859 17.0097 33.7859L18.7465 34.924L19.2834 34.7987L19.7823 35.2669L20.1723 35.2291C20.1723 35.2291 20.7292 35.5094 20.9942 35.3881C21.2591 35.2669 21.3111 34.8623 21.3111 34.8623C21.3111 34.8623 21.6391 34.7331 21.5791 34.3266C21.5181 33.9201 20.0993 31.9909 19.9133 31.7176C19.7273 31.4443 17.1947 31.0348 16.6677 30.8499C16.1428 30.6641 9.23369 25.9242 9.23369 25.9242Z" fill="rgb(255,156,120)" fill-rule="nonzero" />
						<path id="Vector 5089" d="M5.24727 6.17214C5.54323 7.10939 5.74221 8.153 5.64023 9.29897C5.53825 10.4449 5.35328 10.594 5.2113 10.9558C5.06932 11.3176 4.88734 11.7668 4.95035 11.9984C5.08632 12.4984 6.29816 13.701 7.96497 14.2566C8.85487 14.5538 9.2398 14.0677 9.62177 13.8441C9.95574 13.6493 10.3367 13.7477 10.4297 13.5161C10.6287 13.0202 10.2997 11.6764 10.6287 10.7372C10.9576 9.79791 12.0755 7.31812 10.7256 5.32236C9.37373 3.32758 5.24727 6.17214 5.24727 6.17214Z" fill="rgb(255,156,120)" fill-rule="nonzero" />
					</g>
					<path id="Vector 5090" d="M9.67806 13.5825C8.84516 13.7982 7.07541 13.2257 6.25251 12.5796C5.42862 11.9336 5.12266 11.3432 5.12266 11.3164C5.12266 11.2896 5.29964 10.7578 5.29964 10.7578C5.29964 10.7578 4.92469 10.9904 4.85368 11.1921C4.78368 11.3939 4.54272 12.0499 4.48773 12.3192C4.43375 12.5886 4.6457 13.6302 6.31449 14.6221C7.84029 15.5296 8.95315 15.5296 8.95315 15.5296L9.76204 13.9135L9.77403 13.7743L9.67806 13.5825Z" fill="rgb(252,252,255)" fill-rule="nonzero" />
					<path id="Vector 5091" d="M10.9207 24.0297C10.9207 24.0297 10.4478 22.9026 9.14095 20.4655C7.83511 18.0284 5.91837 15.0586 5.55141 14.1373C5.18445 13.2169 4.63652 11.8473 4.63652 11.8473L4.76751 11.4329C4.76751 11.4329 3.60866 11.9825 3.37569 12.7945C3.14272 13.6065 3.42567 14.2963 5.09346 17.7303C6.19433 18.2471 6.19433 18.2471 6.19433 18.2471L5.90836 19.3742L11.0807 27.9933L10.9207 24.0297Z" fill="rgb(84,112,222)" fill-rule="nonzero" />
					<path id="Vector 5092" d="M9.76212 13.9146L9.11621 15.2046C9.11621 15.2046 9.41817 15.8189 9.54316 15.8606C9.66814 15.9024 10.1951 15.8606 10.3291 15.6867C10.462 15.5128 10.651 14.5198 10.651 14.5198L9.76212 13.9146Z" fill="rgb(41,25,37)" fill-rule="nonzero" />
					<path id="Vector 5093" d="M9.76171 13.9145L10.9616 15.2066C10.9616 15.2066 11.3105 14.6162 11.3755 13.835C11.5295 11.9704 10.3706 11.8472 10.3706 11.8472C10.3706 11.8472 10.3637 12.1851 10.2547 12.6373C10.1457 13.0896 9.67773 13.5825 9.67773 13.5825L9.76171 13.9145Z" fill="rgb(252,252,255)" fill-rule="nonzero" />
					<path id="Vector 5094" d="M6.67294 3.90088C6.67294 3.90088 6.14701 8.2542 6.57496 9.3962C7.00291 10.5382 9.57056 12.0827 10.1925 12.2696C10.8144 12.4564 11.2513 12.3421 11.5713 11.8889C11.8923 11.4357 12.3132 9.89813 12.4932 8.19556C12.6731 6.492 12.4812 4.30043 12.3592 3.52818C12.2372 2.75592 11.4723 2.2023 11.0244 2.16751C10.5764 2.13272 8.00778 1.39823 7.0759 1.84151C6.14502 2.28479 6.67294 3.90088 6.67294 3.90088Z" fill="rgb(255,156,120)" fill-rule="nonzero" />
					<path id="Vector 5095" d="M12.0279 3.22416C11.4569 3.76486 10.518 4.32343 9.37821 4.61266C8.77929 4.76473 8.29534 4.73391 8.23736 4.85815C8.05138 5.25769 8.06139 5.95442 7.98138 6.18203C7.90141 6.41063 7.72141 6.34106 7.49744 6.72869C7.27347 7.11631 7.14449 8.1788 7.14449 8.1788L6.65856 7.99493C6.65856 7.99493 6.45857 6.84199 5.98564 6.67104C5.51271 6.50009 5.66769 7.74645 5.66769 7.74645C5.66769 7.74645 5.82566 8.78905 5.63968 9.29893C5.19372 8.22053 4.52084 7.53276 4.10887 6.25559C3.69694 4.97841 3.56393 3.09794 4.22586 1.81779C4.66181 0.975952 6.2336 0.509815 6.2336 0.509815C6.2336 0.509815 7.42143 -0.294263 9.34418 0.117217C11.2659 0.529682 12.0848 1.45701 12.4448 2.61093C12.8047 3.76586 12.5878 5.71988 12.5878 5.71988C12.5878 5.71988 12.4228 3.8911 12.2668 3.53726C12.1098 3.18442 12.0279 3.22416 12.0279 3.22416Z" fill="rgb(41,25,37)" fill-rule="nonzero" />
					<path id="Vector 5096" d="M6.48914 7.42436C6.48813 7.4184 6.48514 7.12419 6.48514 7.11823C6.39116 6.52686 5.9322 6.23366 5.45725 6.44734C4.9773 6.66302 5.52023 8.8695 5.89619 9.06729C6.27215 9.26508 6.5801 9.06729 6.54412 8.47292L6.48914 7.42436Z" fill="rgb(255,156,120)" fill-rule="nonzero" />
				</g>
				<g id="Group 1502">
					<g id="Group 1503">
						<path id="Vector 5097" d="M47.8981 75.9663C47.8981 75.9663 47.7081 76.6561 47.4191 78.1271C47.3252 78.6061 46.6562 78.2881 46.6562 78.2881C46.6562 78.2881 46.6332 76.6561 46.4023 76.3579C46.1703 76.0587 47.8981 75.9663 47.8981 75.9663Z" fill="rgb(50,51,66)" fill-rule="nonzero" />
						<path id="Vector 5098" d="M44.6053 72.1396C44.6073 73.059 44.5463 73.3214 44.4993 73.712C44.3853 74.6572 42.8255 75.4006 42.5575 75.7545C42.2896 76.1083 40.5908 78.0772 40.5908 78.0772C40.5908 78.0772 40.5618 78.5792 40.7298 78.7819C40.8968 78.9837 40.8508 79.6118 41.9046 79.2381C42.9585 78.8644 43.7434 77.0933 45.6671 77.0297C46.321 77.0078 48.0178 76.7355 47.8919 75.5199C47.7659 74.3044 47.3329 72.0641 47.3329 72.0641L46.2821 70.8516L44.6053 72.1396Z" fill="rgb(255,166,152)" fill-rule="nonzero" />
						<path id="Vector 5099" d="M44.0613 74.5539C44.0613 74.5539 42.5045 75.9553 42.1536 76.3578C41.8026 76.7603 41.9086 76.98 42.4715 77.1281C43.0535 77.2811 43.7654 76.8011 45.1422 75.996C45.9051 75.5498 45.9071 75.6114 46.778 75.2089C47.6488 74.8063 47.7948 74.7367 47.7248 74.2964C47.6548 73.8562 47.6048 73.5649 47.6048 73.5649C47.6048 73.5649 47.9858 74.0818 48.0668 75.0816C48.1478 76.0815 48.1138 76.6103 46.749 76.9661C45.0152 77.4183 46.243 77.0277 45.6501 77.2494C45.3112 77.3756 44.8292 78.1389 43.7084 78.9897C42.5875 79.8395 40.6028 79.8584 40.2518 79.8395C39.3969 79.7928 38.996 79.0155 39.9628 78.1389C40.9807 77.2155 42.8355 75.4096 44.0613 74.5539Z" fill="rgb(50,51,66)" fill-rule="nonzero" />
					</g>
					<g id="Group 1504">
						<path id="Vector 5100" d="M54.2948 76.8139C54.1038 77.7075 52.868 79.0343 52.477 80.1704C52.268 80.7796 51.8581 82.354 52.486 82.509C52.493 82.511 52.5 82.512 52.507 82.514C53.2289 82.678 54.2848 82.5886 54.8527 82.2049C55.4206 81.8213 56.9654 79.1586 57.2124 78.8872C57.4594 78.6159 57.3574 78.3058 57.3974 78.0295C57.5423 77.0227 56.9134 76.4333 56.9704 75.9721C57.0274 75.5109 57.2154 73.9555 57.2154 73.9555L55.6116 73.6543C55.6116 73.6543 54.4897 74.9036 54.5037 75.4086C54.5168 75.9155 54.2948 76.8139 54.2948 76.8139Z" fill="rgb(255,166,152)" fill-rule="nonzero" />
						<path id="Vector 5101" d="M54.0616 77.482C54.0616 77.482 52.6688 79.5931 52.4559 80.4617C52.2419 81.3304 53.5967 81.4725 54.3166 81.0014C55.0475 80.5234 55.4835 79.5344 56.1764 78.7681C56.7833 78.0972 57.2992 77.6858 57.3352 77.4452C57.3992 77.0198 57.0892 76.5964 57.0892 76.5964C57.0892 76.5964 57.6072 76.8986 57.6602 78.0157C57.7152 79.1607 57.6652 79.1607 57.2122 79.6338C56.8123 80.0513 56.1674 81.7071 54.8696 82.8471C54.1167 83.509 52.7218 83.9871 51.746 84.0001C50.5841 83.8321 50.3401 83.3083 50.6981 82.6275C50.9131 82.22 51.587 81.4904 52.3269 80.1924C52.8418 79.2889 54.0616 77.482 54.0616 77.482Z" fill="rgb(50,51,66)" fill-rule="nonzero" />
						<path id="Vector 5102" d="M57.5664 79.0266C57.5664 79.0266 57.4504 80.4509 57.3804 81.1307C57.3424 81.4994 57.3344 81.5134 57.3344 81.5134C57.3344 81.5134 57.3424 81.4994 57.0515 81.6038C56.9065 81.6555 56.7685 81.4368 56.7685 81.4368L56.5186 78.9858L57.5664 79.0266Z" fill="rgb(50,51,66)" fill-rule="nonzero" />
					</g>
					<path id="Vector 5103" d="M43.3558 40.6665C43.0288 41.6743 42.5499 44.8876 42.5689 49.4606C42.5849 53.2782 43.1968 60.159 43.3558 61.4104C43.5138 62.6617 46.8704 63.3992 47.8162 62.931C48.7621 62.4639 49.192 59.9612 49.192 59.9612C49.192 59.9612 48.6691 46.5435 48.7901 45.3428C48.9101 44.1432 43.3558 40.6665 43.3558 40.6665Z" fill="rgb(38,50,99)" fill-rule="nonzero" />
					<path id="Vector 5104" d="M45.2364 45.0477C45.1984 45.502 45.0184 48.7819 45.3744 49.7221C45.7303 50.6623 47.0881 51.3203 47.0881 51.3203C47.0881 51.3203 49.4968 63.0593 51.3116 65.4527C53.1264 67.846 55.739 65.3871 55.772 64.8563C55.805 64.3246 55.8 62.8079 55.8 62.8079C55.8 62.8079 56.009 56.4002 56.28 53.2375C56.5509 50.0759 56.7729 46.2504 55.4091 43.5787C54.0443 40.9081 45.2364 45.0477 45.2364 45.0477Z" fill="rgb(38,50,99)" fill-rule="nonzero" />
					<path id="Vector 5105" d="M51.0813 62.4005C51.0813 62.4005 49.7414 61.3887 50.5003 63.9043C52.2401 69.6769 52.989 76.024 53.5589 77.318C54.1289 78.6121 56.3566 78.2165 57.0415 77.6599C57.7264 77.1033 57.5954 76.7416 57.5954 76.7416C57.5954 76.7416 57.4954 69.0656 57.0415 66.8959C56.5875 64.7262 54.6638 59.9902 54.6638 59.9902L51.0813 62.4005Z" fill="rgb(38,50,99)" fill-rule="nonzero" />
					<path id="Vector 5106" d="M43.1943 59.4147C43.3673 63.8953 43.7832 73.0899 43.9062 73.7668C44.0302 74.4436 48.0127 74.6086 48.1797 72.8564C48.2887 71.7084 49.2995 64.3167 49.2455 62.1391C49.1906 59.9614 48.0507 56.8833 48.0507 56.8833L43.1943 59.4147Z" fill="rgb(38,50,99)" fill-rule="nonzero" />
					<path id="Vector 5107" d="M43.4946 23.5078C41.6779 24.1708 38.7322 26.7132 36.8745 27.4924C35.0167 28.2716 34.4717 28.3114 33.6499 28.6354C32.828 28.9594 32.368 33.3535 35.6056 32.1926C38.8422 31.0317 43.1976 29.516 43.8776 28.5986C44.5575 27.6812 43.4946 23.5078 43.4946 23.5078Z" fill="rgb(72,96,191)" fill-rule="nonzero" />
					<path id="Vector 5108" d="M42.6951 23.3867C40.9373 24.4393 33.8012 28.2877 33.2133 28.6157C32.6254 28.9437 34.1312 31.7574 34.8551 32.15C35.58 32.5436 36.1029 32.4422 37.1508 32.0665C38.1987 31.6908 43.274 29.2379 43.274 29.2379C43.274 29.2379 43.9889 23.9403 43.7909 23.7256C43.592 23.511 42.6951 23.3867 42.6951 23.3867Z" fill="rgb(72,96,191)" fill-rule="nonzero" />
					<path id="Vector 5109" d="M50.7021 13.8928C53.6768 10.4658 59.426 11.9775 57.8312 19.0641C56.4074 25.3893 58.9321 24.6369 61.9997 25.0355C60.7658 29.0141 55.8655 29.3073 54.2507 26.584C52.8729 24.2602 53.2648 22.1333 53.4868 20.6235C54.0957 16.4859 50.7021 13.8928 50.7021 13.8928Z" fill="rgb(41,25,37)" fill-rule="nonzero" />
					<path id="Vector 5110" d="M46.2154 22.5479C44.2397 22.7218 42.8669 23.0051 42.5329 23.5795C42.1989 24.154 42.8028 28.1018 43.2798 29.0858C43.7567 30.0697 46.4324 25.4312 46.4324 25.4312L46.2154 22.5479Z" fill="rgb(72,96,191)" fill-rule="nonzero" />
					<path id="Vector 5111" d="M35.2863 29.0477C35.2803 28.9672 35.5173 28.2357 33.9225 28.5349C32.3277 28.834 26.0755 33.0094 25.0366 33.3305C23.9978 33.6515 23.2259 33.7996 22.594 33.8373C21.9621 33.8741 20.7512 33.9745 20.7512 33.9745C20.7512 33.9745 17.8766 34.6156 17.7536 34.702C17.6306 34.7885 17.6626 34.9436 17.6626 34.9436C17.6626 34.9436 16.8577 35.1115 16.8267 35.1861C16.7957 35.2606 16.8487 35.4823 16.8487 35.4823C16.8487 35.4823 16.2208 35.5916 16.1748 35.7039C16.1288 35.8152 16.6407 36.1025 16.6407 36.1025L17.1827 36.5497L18.3325 36.6272L20.5742 36.2446L21.9021 36.2724C21.9021 36.2724 19.8903 36.8191 19.7083 37.0497C19.5254 37.2802 19.4064 37.6321 19.9273 37.7921C20.4482 37.9521 21.6971 37.2842 21.6971 37.2842C21.6971 37.2842 22.8629 37.2136 23.7648 36.8936C24.6677 36.5736 25.0146 35.7536 25.4446 35.6135C25.8745 35.4733 34.7264 32.8832 36.0792 32.0245C37.4341 31.1627 35.2863 29.0477 35.2863 29.0477Z" fill="rgb(255,156,120)" fill-rule="nonzero" />
					<path id="Vector 5112" d="M58.5664 28.9225C57.5975 26.063 55.9537 24.8584 54.3419 23.3527C52.7301 21.8469 51.0254 22.6589 49.6435 22.4094C48.2627 22.16 46.411 22.8338 45.626 24.0573C44.8411 25.2798 42.1855 30.6797 41.9995 32.0722C41.7265 34.1177 42.3294 35.8322 42.6914 37.9144C43.0924 40.2223 43.4873 41.8572 43.7463 42.6822C44.0052 43.5071 45.2131 45.319 48.9736 45.6897C52.7341 46.0605 55.5107 44.4533 55.4748 42.4546C55.4388 40.4916 54.9138 40.0225 55.0328 36.8986C55.1519 33.7748 58.5664 28.9225 58.5664 28.9225Z" fill="rgb(48,64,128)" fill-rule="nonzero" />
					<path id="Vector 5113" d="M54.1943 24.4172C53.8684 23.7145 51.5676 23.6787 51.5676 23.6787L48.914 23.3279C47.1022 24.7591 46.2713 25.5433 45.7634 27.38C45.2565 29.2168 45.7634 36.2785 45.7634 36.2785C45.7634 36.2785 49.5579 29.9264 51.9676 27.8909C54.3783 25.8544 54.5203 25.1199 54.1943 24.4172Z" fill="rgb(193,193,222)" fill-rule="nonzero" />
					<path id="Vector 5114" d="M45.7627 22.8162C47.1005 22.7347 47.5105 22.9792 47.6945 23.8648C47.8224 24.483 47.7444 24.7424 47.7175 25.786C47.6845 27.0483 50.1271 27.911 51.7299 26.5245C53.3337 25.137 54.0896 24.809 53.8576 24.3081C53.3367 23.183 52.9738 22.1364 52.8248 21.6961C52.6758 21.2558 53.1188 18.9658 53.1318 18.279C53.1448 17.5922 50.1581 16.7663 48.8303 17.9481C47.5025 19.1298 45.7627 22.8162 45.7627 22.8162Z" fill="rgb(255,156,120)" fill-rule="nonzero" />
					<path id="Vector 5115" d="M47.4602 27.7845L48.4701 27.0192L48.5971 26.4586C48.5971 26.4586 48.0752 26.2787 47.9082 25.6575C47.7412 25.0363 47.7652 24.606 47.7652 24.606C47.7652 24.606 47.4863 24.8773 47.3373 25.2768C47.1983 25.6486 46.9433 26.8303 47.4602 27.7845Z" fill="rgb(252,252,255)" fill-rule="nonzero" />
					<path id="Vector 5116" d="M48.4693 27.0193C48.4693 27.0193 48.7483 28.2666 48.7683 28.3064C48.7883 28.3471 49.4232 28.2905 50.3441 27.9476C51.8479 27.388 53.5156 25.8812 53.9956 25.1706C54.4755 24.4599 53.6906 23.3984 53.6906 23.3984L53.4317 23.3279C53.3597 23.3915 52.7208 24.6637 50.899 25.7699C50.2641 26.1545 49.4122 26.4239 48.5963 26.4597C48.4053 26.5223 48.4693 27.0193 48.4693 27.0193Z" fill="rgb(252,252,255)" fill-rule="nonzero" />
					<path id="Vector 5117" d="M48.4649 16.945C48.9198 18.41 49.7677 21.4216 49.2338 22.2922C48.6999 23.1629 46.1052 23.9332 45.7122 24.0167C45.3183 24.1002 44.8934 23.7523 44.8504 23.6658C44.8074 23.5784 44.0535 21.0479 43.6225 20.7726C43.1916 20.4973 42.6317 20.3044 42.9426 19.8482C43.2536 19.392 43.5006 18.5244 43.3916 17.7024C43.2826 16.8794 43.0796 14.6561 44.4074 13.9613C45.7352 13.2656 48.4649 16.945 48.4649 16.945Z" fill="rgb(255,156,120)" fill-rule="nonzero" />
					<path id="Vector 5118" d="M49.3429 19.1466C49.3359 18.6666 49.4429 18.266 50.0448 18.2143C50.6477 18.1626 50.8907 18.9508 50.7217 19.6943C50.5528 20.4377 49.8028 21.1712 49.3789 21.0062C48.955 20.8412 49.3429 19.1466 49.3429 19.1466Z" fill="rgb(255,156,120)" fill-rule="nonzero" />
					<path id="Vector 5119" d="M44.2414 14.8937C44.9454 15.3111 46.3702 16.144 46.8361 17.2651C47.3021 18.3863 47.576 19.3772 48.031 19.8672C48.4859 20.3572 49.0038 20.721 49.0038 20.721C49.0038 20.721 48.3569 19.6008 48.6649 19.1158C48.9729 18.6308 49.3578 18.1795 50.0257 18.6178C50.5136 18.9379 50.2707 19.5382 50.2617 20.0123C50.2507 20.6136 50.5726 21.202 50.9546 21.6512C51.3325 22.0975 51.7115 22.5438 52.0894 22.989C52.9183 22.7614 52.7573 22.6431 53.0333 22.2923C53.3883 21.8401 53.6532 20.9028 54.1232 19.4487C54.4241 18.5154 54.5931 17.4092 54.3661 16.4352C54.0442 15.0507 54.5561 13.5221 52.0665 12.2986C49.5768 11.0751 47.497 11.4746 45.5123 12.3075C43.5276 13.1414 43.2826 14.676 43.1866 14.9901C43.0906 15.3041 43.2606 15.978 43.2606 15.978C43.2606 15.978 43.4856 14.8599 43.6696 14.8459C43.8555 14.8321 44.2414 14.8937 44.2414 14.8937Z" fill="rgb(41,25,37)" fill-rule="nonzero" />
					<path id="Vector 5120" d="M55.369 29.7773C54.5591 30.2435 53.3003 31.9818 53.7812 33.6705C54.2621 35.3581 55.071 41.0403 55.246 43.0053C55.421 44.9692 59.3635 44.6234 59.5324 42.4407C59.7014 40.2581 59.5984 37.1025 59.5994 35.6663C59.6004 34.2311 59.4904 31.7751 59.1175 30.8011C58.7445 29.827 55.369 29.7773 55.369 29.7773Z" fill="rgb(72,96,191)" fill-rule="nonzero" />
					<path id="Vector 5121" d="M55.5391 27.3263C54.6832 27.9047 53.6164 29.0288 53.3804 30.4899C53.1444 31.9509 53.9393 34.6603 54.0753 34.9645C54.0673 33.1237 55.6281 32.1408 55.8811 31.8784C56.134 31.616 58.5977 31.1747 59.1726 31.8704C59.3656 32.922 59.3656 32.922 59.3656 32.922C59.3656 32.922 59.2636 31.3755 59.0676 30.5774C58.8717 29.7793 58.6737 28.8132 58.0928 27.7547C57.5118 26.6961 55.5391 27.3263 55.5391 27.3263Z" fill="rgb(72,96,191)" fill-rule="nonzero" />
					<path id="Vector 5122" d="M57.5293 41.1278C56.3375 41.2163 55.4146 41.7182 55.2276 42.8155C55.0407 43.9128 53.3189 51.8143 52.725 52.6164C52.1311 53.4185 51.1242 54.1569 50.9982 54.6539C50.8722 55.1508 49.8384 56.9886 49.7184 57.3901C49.5984 57.7916 50.1713 57.9795 50.5073 57.738C50.8432 57.4965 51.6071 55.8824 51.6071 55.8824L51.6831 56.7162L50.8592 58.4436C50.8592 58.4436 50.4813 58.6752 50.3763 59.0887C50.2713 59.5031 51.1742 59.368 51.1742 59.368L51.7531 59.4604C51.7531 59.4604 52.1751 59.4564 52.626 59.2874C53.0769 59.1185 53.3889 58.9197 53.4679 58.8859C53.5469 58.8531 53.7869 58.9575 54.1798 58.5758C54.5738 58.1941 55.0407 57.3334 55.1707 56.8911C55.3007 56.4478 55.3776 53.6659 55.4307 53.2832C55.4837 52.9006 59.2871 45.2753 59.0342 43.0201C58.7832 40.7641 57.5293 41.1278 57.5293 41.1278Z" fill="rgb(255,156,120)" fill-rule="nonzero" />
					<path id="Vector 5123" d="M56.6296 40.1895C54.8678 41.404 55.3668 41.3344 55.1338 41.9507C54.9008 42.5669 52.6281 51.2835 52.4391 52.2296C52.2502 53.1759 53.565 53.5237 54.6639 53.632C55.7617 53.7404 56.2786 53.2385 56.2786 53.2385C56.2786 53.2385 59.5782 45.2385 59.5472 41.9775C59.0473 40.4439 56.6296 40.1895 56.6296 40.1895Z" fill="rgb(72,96,191)" fill-rule="nonzero" />
					<path id="Vector 5124" d="M33.213 28.6154C28.4326 30.9879 24.879 32.9747 24.6241 33.248C24.3681 33.5213 24.4591 33.4975 24.4591 33.4975L25.037 33.3295C25.037 33.3295 25.6609 33.6187 25.9239 34.398C26.1868 35.1772 25.9149 35.4684 25.9149 35.4684L25.6059 35.5618C25.6059 35.5618 26.0299 35.9663 26.5098 35.8331C26.9898 35.701 34.8917 33.3076 37.5964 31.8118C37.6554 29.5636 35.6916 28.2288 35.2737 28.0966C34.8537 27.9654 33.213 28.6154 33.213 28.6154Z" fill="rgb(72,96,191)" fill-rule="nonzero" />
				</g>
			</g>
		</g>
		<path id="Vector 5125" d="M7.62303 27.3622C8.04699 26.9378 9.27083 26.418 8.79689 25.5453C8.32296 24.6726 6.41521 20.9117 5.55931 19.1674C4.70242 17.4231 3.82854 15.2932 2.81168 14.2386C1.79481 13.1841 1.71383 13.2557 1.71383 13.2557C1.71383 13.2557 -0.0119613 14.2237 6.10272e-05 15.9899C0.0110459 17.7561 0.670964 19.3195 1.82581 21.844C2.98066 24.3675 5.40134 27.9476 5.81129 28.2666C6.2202 28.5857 7.62303 27.3622 7.62303 27.3622Z" fill="rgb(72,96,191)" fill-rule="nonzero" />
		<path id="Vector 5126" d="M8.79734 25.5453C7.62949 24.9817 7.39652 25.3922 6.90058 25.7431C6.40464 26.0949 5.2018 26.9258 5.66774 28.0479C6.13268 29.1691 14.5416 33.2719 14.7316 33.2818C14.9215 33.2918 15.3875 33.2202 15.3875 33.2202C15.3875 33.2202 14.7946 32.4986 14.7546 32.0723C14.7146 31.6459 15.1425 30.8637 15.5465 30.7156C15.9504 30.5675 16.4423 30.7275 16.4423 30.7275L16.6693 30.8487C16.6693 30.8487 16.7893 30.7305 16.7723 30.5545C16.7553 30.3796 8.79734 25.5453 8.79734 25.5453Z" fill="rgb(72,96,191)" fill-rule="nonzero" />
		<path id="Vector 5127" d="M29.6259 14.9583C29.6259 14.9583 29.169 15.1868 28.951 15.4363C28.734 15.6868 29.055 16.465 29.135 16.6151C29.215 16.7652 29.7829 16.961 29.9499 16.8964C30.1168 16.8308 30.4038 16.1062 30.4038 16.1062L29.6259 14.9583Z" fill="rgb(41,25,37)" fill-rule="nonzero" />
	</g>
</svg>
