<svg viewBox="0 0 71 82" xmlns="http://www.w3.org/2000/svg" xmlns:xlink="http://www.w3.org/1999/xlink" width="71.000000" height="82.000000" fill="none" customFrame="#000000">
	<g id="Kemitraan">
		<path id="Vector 5128" d="M20.5792 80.2674C16.5353 82.5877 9.95734 82.5758 5.88729 80.2415C1.81728 77.9072 1.79661 74.1329 5.84165 71.8126C9.88558 69.4923 16.4635 69.5042 20.5335 71.8385C24.6025 74.1729 24.6231 77.9471 20.5792 80.2674Z" fill="rgb(189,189,187)" fill-rule="nonzero" />
		<path id="Vector 5129" d="M62.3709 80.3895C59.2249 82.1945 54.108 82.1848 50.9424 80.369C47.7769 78.5532 47.7606 75.6172 50.9066 73.8121C54.0526 72.0071 59.1695 72.0169 62.3351 73.8327C65.5006 75.6485 65.517 78.5845 62.3709 80.3895Z" fill="rgb(189,189,187)" fill-rule="nonzero" />
		<g id="Group 1506">
			<g id="Group 1507">
				<g id="Group 1508">
					<path id="Vector 5130" d="M57.4652 72.2578C57.4652 72.2578 57.2575 73.0075 56.9433 74.6083C56.8412 75.1301 56.1128 74.7833 56.1128 74.7833C56.1128 74.7833 56.0878 73.0085 55.8356 72.6834C55.5845 72.3572 57.4652 72.2578 57.4652 72.2578Z" fill="rgb(50,51,66)" fill-rule="nonzero" />
					<path id="Vector 5131" d="M53.8818 68.0935C53.884 69.0938 53.8177 69.379 53.7666 69.8046C53.6426 70.8329 51.9446 71.642 51.6533 72.0266C51.3619 72.4111 49.5128 74.5542 49.5128 74.5542C49.5128 74.5542 49.4813 75.1008 49.6639 75.3212C49.8466 75.5415 49.7955 76.2242 50.9423 75.817C52.0892 75.4108 52.9426 73.4837 55.0363 73.4146C55.7472 73.3919 57.5942 73.0938 57.4572 71.7727C57.3202 70.4505 56.8496 68.0125 56.8496 68.0125L55.7059 66.6936L53.8818 68.0935Z" fill="rgb(255,166,152)" fill-rule="nonzero" />
					<path id="Vector 5132" d="M53.289 70.7205C53.289 70.7205 51.5953 72.2447 51.2126 72.6822C50.83 73.1197 50.9463 73.3584 51.5583 73.5193C52.191 73.6857 52.9661 73.1629 54.4641 72.2879C55.2946 71.8029 55.2968 71.8688 56.2447 71.4313C57.1927 70.9938 57.3503 70.9182 57.2742 70.4386C57.1981 69.9601 57.1437 69.6436 57.1437 69.6436C57.1437 69.6436 57.4536 71.2606 57.5416 72.3473C57.6297 73.4351 57.6982 72.9565 56.2121 73.3432C54.325 73.8347 55.662 73.4102 55.0163 73.6511C54.6478 73.7883 54.1238 74.619 52.903 75.5436C51.6823 76.4683 49.5233 76.4888 49.1418 76.4683C48.2112 76.4175 47.7742 75.5728 48.8276 74.6179C49.9364 73.6155 51.954 71.6506 53.289 70.7205Z" fill="rgb(50,51,66)" fill-rule="nonzero" />
				</g>
				<g id="Group 1509">
					<path id="Vector 5133" d="M61.1893 73.7526C60.9817 74.7248 59.637 76.168 59.2119 77.4037C58.9847 78.0659 58.5379 79.7791 59.2217 79.9476C59.2293 79.9498 59.2369 79.9509 59.2456 79.953C60.0305 80.1313 61.1806 80.0341 61.7981 79.6171C62.4155 79.2001 64.0973 76.3041 64.3658 76.0081C64.6343 75.7132 64.5234 75.3762 64.5669 75.0748C64.7245 73.9795 64.0407 73.3389 64.1016 72.8366C64.1636 72.3344 64.3679 70.6427 64.3679 70.6427L62.6221 70.3154C62.6221 70.3154 61.4013 71.6743 61.4165 72.2241C61.4307 72.774 61.1893 73.7526 61.1893 73.7526Z" fill="rgb(255,166,152)" fill-rule="nonzero" />
					<path id="Vector 5134" d="M60.9359 74.4786C60.9359 74.4786 59.4205 76.7762 59.1879 77.7203C58.9553 78.6644 60.4293 78.8199 61.2131 78.3079C62.0078 77.7883 62.4828 76.7124 63.2373 75.8785C63.8982 75.1494 64.4591 74.7011 64.4983 74.4386C64.5678 73.9763 64.2309 73.5161 64.2309 73.5161C64.2309 73.5161 64.794 73.8445 64.8527 75.0597C64.9124 76.3052 64.8581 76.3052 64.3656 76.8204C63.9308 77.2741 63.2286 79.0759 61.8164 80.316C60.9968 81.0354 59.4792 81.5561 58.4171 81.5701C57.1529 81.3865 56.8876 80.8172 57.2768 80.0773C57.5105 79.6333 58.2443 78.8405 59.0498 77.4286C59.6086 76.4445 60.9359 74.4786 60.9359 74.4786Z" fill="rgb(50,51,66)" fill-rule="nonzero" />
					<path id="Vector 5135" d="M64.7499 76.1583C64.7499 76.1583 64.6238 77.7073 64.5466 78.4473C64.5053 78.848 64.4966 78.8642 64.4966 78.8642C64.4966 78.8642 64.5053 78.8491 64.189 78.9625C64.0314 79.0187 63.8803 78.781 63.8803 78.781L63.6074 76.114L64.7499 76.1583Z" fill="rgb(50,51,66)" fill-rule="nonzero" />
				</g>
				<path id="Vector 5136" d="M53.2549 33.958C52.033 35.1333 51.3177 38.9043 51.3634 43.5902C51.4101 48.275 51.9026 52.6693 52.1798 54.6569C52.457 56.6433 55.8259 59.7867 56.4064 59.1591C56.9869 58.5316 57.5663 57.5302 57.8848 55.6723C58.2033 53.8143 58.9403 49.3477 58.8034 46.7228C58.6664 44.0979 59.4165 36.1735 59.4165 36.1735L53.2549 33.958Z" fill="rgb(38,50,99)" fill-rule="nonzero" />
				<path id="Vector 5137" d="M56.1963 39.5253C56.3311 40.1821 55.843 42.0108 56.9616 44.0103C58.0802 46.0087 58.1606 45.9493 58.1606 45.9493C58.1606 45.9493 60.0044 57.3649 60.7153 58.9776C61.4262 60.5904 63.4504 59.6376 64.1614 59.0662C64.8723 58.4948 65.1767 60.1118 65.6256 57.7862C66.0757 55.4594 66.304 48.289 66.2464 44.8345C66.1898 41.38 65.7833 36.5872 65.3028 34.7065C64.8234 32.8259 56.1963 39.5253 56.1963 39.5253Z" fill="rgb(38,50,99)" fill-rule="nonzero" />
				<path id="Vector 5138" d="M62.09 53.9557C62.003 54.4624 59.8191 53.2039 60.2061 57.1348C60.5931 61.0646 60.8301 72.3344 60.9703 73.0743C61.1116 73.8142 64.2837 73.8855 64.5066 73.2428C64.7294 72.6001 65.0273 70.5704 65.0273 70.5704C65.0273 70.5704 66.297 64.4618 65.9546 60.8313C65.6121 57.1996 65.012 53.0884 65.012 53.0884L62.09 53.9557Z" fill="rgb(38,50,99)" fill-rule="nonzero" />
				<path id="Vector 5139" d="M52.1807 54.6558C52.4264 58.0736 53.1177 68.3776 53.3384 70.0174C53.5591 71.6571 57.1682 70.8286 57.2334 70.0422C57.2987 69.2559 57.8237 62.1665 58.0563 59.4606C58.2879 56.7547 57.215 51.3979 57.215 51.3979L52.1807 54.6558Z" fill="rgb(38,50,99)" fill-rule="nonzero" />
				<path id="Vector 5140" d="M60.9852 16.353C65.5944 16.9709 68.2806 18.9703 68.6078 19.114C68.935 19.2576 66.7358 26.481 66.2608 30.1115C65.7857 33.7421 65.6118 35.0891 65.5292 36.3216C65.4466 37.553 63.9736 39.2295 59.9535 39.317C55.9335 39.4045 53.1462 37.8998 52.6059 36.7375C52.0657 35.5763 52.3244 32.7667 51.4732 28.7677C50.6231 24.7688 52.6549 20.5193 52.9071 18.4993C53.1604 16.4793 55.6661 16.353 55.6661 16.353C55.6661 16.353 57.1782 16.3616 57.8033 16.3141C58.4305 16.2666 60.9852 16.353 60.9852 16.353Z" fill="rgb(48,64,128)" fill-rule="nonzero" />
				<path id="Vector 5141" d="M57.9798 17.2841C55.6589 19.4661 55.273 21.7723 55.1838 23.6735C55.0947 25.5746 56.2024 27.8106 56.2024 27.8106C56.2024 27.8106 59.4093 25.9657 62.7271 21.7604C64.6795 19.2846 65.0274 17.6935 64.4045 17.1296C63.7826 16.5668 57.9798 17.2841 57.9798 17.2841Z" fill="rgb(193,193,222)" fill-rule="nonzero" />
				<path id="Vector 5142" d="M55.5981 13.7108C55.7133 14.7651 54.6013 17.7464 53.9066 18.5285C53.212 19.3106 56.0134 19.0978 56.0134 19.0978L59.33 19.2414L58.4647 13.4937L55.5981 13.7108Z" fill="rgb(41,25,37)" fill-rule="nonzero" />
				<path id="Vector 5143" d="M56.9492 13.7852C57.9135 16.0871 56.8514 18.2313 57.1514 19.6777C57.4515 21.1241 59.1571 20.9513 60.3768 20.8584C61.5965 20.7655 62.2879 19.1538 62.2879 19.1538C62.2879 19.1538 61.8726 16.0363 62.0487 15.0534C62.2248 14.0704 62.8477 12.3669 62.7064 10.9399C62.5651 9.51299 62.6325 9.57024 62.5531 9.35745C62.4738 9.14466 56.9492 13.7852 56.9492 13.7852Z" fill="rgb(255,156,120)" fill-rule="nonzero" />
				<path id="Vector 5144" d="M57.1725 18.0781C56.867 18.6236 56.4832 19.9166 56.4985 20.5712C56.5137 21.2258 57.0007 22.0284 57.392 22.1224C58.0899 21.3511 58.2835 20.7851 58.2835 20.7851L58.5683 20.6425C58.5683 20.6425 57.8943 20.541 57.3377 19.6757C57.0322 19.2005 57.1725 18.0781 57.1725 18.0781Z" fill="rgb(252,252,255)" fill-rule="nonzero" />
				<path id="Vector 5145" d="M62.2314 18.7012C62.2227 19.0911 61.7205 20.1119 60.866 20.4317C60.0115 20.7514 58.569 20.6423 58.569 20.6423L58.2842 20.7849C58.2842 20.7849 58.5538 21.7603 58.6397 22.631C58.8049 22.6677 60.7258 22.7844 61.9411 21.9818C63.1565 21.1792 62.9662 19.9748 62.7282 19.5092C62.489 19.0447 62.2314 18.7012 62.2314 18.7012Z" fill="rgb(252,252,255)" fill-rule="nonzero" />
				<path id="Vector 5146" d="M61.9733 10.8083C61.9733 10.8083 61.3276 14.265 60.1384 15.168C58.9502 16.0711 56.7216 16.2245 56.3075 16.1618C55.8933 16.0992 55.3226 15.9512 55.1237 15.6844C54.9247 15.4186 54.5758 13.4754 54.5225 12.2396C54.4692 11.0039 54.7867 9.41703 55.0487 8.71923C55.3096 8.02249 55.8281 6.72193 56.7695 6.55666C57.7109 6.39139 60.8156 5.98847 61.4864 6.9369C62.1571 7.88748 61.9733 10.8083 61.9733 10.8083Z" fill="rgb(255,156,120)" fill-rule="nonzero" />
				<path id="Vector 5147" d="M62.738 13.0873C62.738 13.0873 61.639 15.1873 61.6911 16.6293C61.7433 18.0714 61.0106 20.7471 61.0389 20.9318C61.0671 21.1165 62.9956 21.6447 63.9533 21.0161C64.9111 20.3874 64.7534 17.8165 65.0154 17.6188C65.2763 17.4211 65.8829 17.6004 65.8829 17.6004C65.8829 17.6004 64.8491 15.9834 64.4175 14.6828C63.986 13.3823 63.9077 11.7749 63.9077 11.7749L62.738 13.0873Z" fill="rgb(41,25,37)" fill-rule="nonzero" />
				<path id="Vector 5148" d="M40.1797 18.7498C40.1916 18.8427 40.0981 20.854 40.8058 21.0798C41.5135 21.3056 49.9667 22.5197 51.8462 22.631C52.0332 21.6901 52.7289 19.7792 53.0453 18.456C53.5268 16.4403 56.0304 16.3388 55.6684 16.3528C53.6997 16.4338 49.3416 17.0992 48.0284 17.1997C46.7152 17.2991 44.1997 17.1641 43.2953 17.2634C42.3897 17.3628 40.1797 18.7498 40.1797 18.7498Z" fill="rgb(72,96,191)" fill-rule="nonzero" />
				<path id="Vector 5149" d="M51.4454 16.9803C51.1747 16.7297 47.2264 17.5593 45.86 17.5269C44.4946 17.4934 43.6608 17.2968 42.6009 17.1435C41.541 16.9901 39.7484 19.5847 40.3996 20.1399C41.0507 20.6952 43.9609 21.7235 46.3905 21.9558C48.8201 22.188 50.6344 22.0076 50.7573 21.999C50.8812 21.9882 51.9835 18.524 51.4454 16.9803Z" fill="rgb(72,96,191)" fill-rule="nonzero" />
				<path id="Vector 5150" d="M68.1783 19.0578C66.8097 19.9479 66.0009 21.9765 65.8063 25.216C65.7661 25.8879 65.8824 26.967 65.8824 26.967C65.8824 26.967 66.701 26.9735 67.8609 25.9689C69.0208 24.9643 70.3536 24.0289 70.2992 23.3246C70.2449 22.6203 69.4296 20.2028 69.0654 19.5633C68.7012 18.9227 68.1783 19.0578 68.1783 19.0578Z" fill="rgb(72,96,191)" fill-rule="nonzero" />
				<path id="Vector 5151" d="M66.5695 25.0032C66.3315 26.2714 66.1727 26.1169 66.2847 29.1923C66.3956 32.2676 66.9228 33.3942 67.0978 34.0272C67.2729 34.6602 71.1809 33.9451 70.6298 31.9662C70.0786 29.9873 70.0819 28.9449 70.0808 27.8398C70.0797 26.7359 70.2775 23.9489 69.9612 22.9314C69.6449 21.9149 66.5695 25.0032 66.5695 25.0032Z" fill="rgb(72,96,191)" fill-rule="nonzero" />
				<path id="Vector 5152" d="M67.6082 31.1343C67.4604 32.208 66.9842 32.0157 67.0973 34.0281C67.2103 36.0406 68.4866 42.5283 68.355 43.5393C68.2235 44.5504 67.7778 44.7503 67.6724 45.5712C67.568 46.3922 67.6452 47.939 67.4788 48.2328C67.3125 48.5267 67.169 48.9749 67.3147 49.2353C67.4604 49.4945 67.9191 49.3249 67.9191 49.3249C67.9191 49.3249 68.2898 48.4219 68.3974 47.9131C68.505 47.4043 68.8833 46.5942 68.8833 46.5942C68.8833 46.5942 69.1008 47.3697 69.1529 47.7824C69.2062 48.195 68.8638 49.3357 68.8638 49.3357C68.8638 49.3357 67.7876 50.4807 67.6713 50.7389C67.5549 50.9982 67.9245 51.4389 68.4137 51.1202C68.9029 50.8015 69.9085 49.569 69.9085 49.569C69.9085 49.569 70.6129 47.8277 70.6129 47.4216C70.6129 47.0154 70.4086 43.8213 70.4357 43.4961C70.4629 43.171 71.3369 34.3727 70.6271 31.9682C69.1279 31.8105 67.6082 31.1343 67.6082 31.1343Z" fill="rgb(255,156,120)" fill-rule="nonzero" />
				<path id="Vector 5153" d="M56.8169 7.37097C57.3714 7.21975 58.8335 7.82682 59.8466 9.12522C60.8587 10.4236 60.925 12.0904 60.9478 12.3864C60.9707 12.6812 61 13.0539 61 13.0539C61 13.0539 61.8001 11.8214 62.2589 11.4422C62.7176 11.0631 62.9068 12.0266 62.7524 12.342C62.5991 12.6575 62.2806 14.0585 62.2806 14.0585C62.2806 14.0585 63.758 12.9394 64.3776 10.7812C64.9972 8.62291 64.4124 6.13521 61.8577 5.23539C60.2815 3.96398 56.9267 5.32937 56.1843 5.90188C55.4418 6.47439 55.1592 7.50382 55.1863 8.36474C55.7005 7.36771 56.0245 7.08577 56.3093 7.11063C56.5941 7.13873 56.8169 7.37097 56.8169 7.37097Z" fill="rgb(41,25,37)" fill-rule="nonzero" />
				<path id="Vector 5154" d="M61.9762 12.0743C62.0806 11.3938 62.3023 11.2059 62.9155 11.4089C63.5286 11.612 63.3427 12.6739 62.7753 13.2636C62.2078 13.8534 61.5186 13.6871 61.6338 13.3501C61.7501 13.013 61.9762 12.0743 61.9762 12.0743Z" fill="rgb(255,156,120)" fill-rule="nonzero" />
			</g>
			<path id="Vector 5155" d="M70.8954 32.3853C70.5584 30.3794 70.0932 28.7407 70.0932 28.7407C70.0932 28.7407 66.4569 30.4572 66.4786 31.9867C66.5003 33.5163 67.6624 42.7434 67.8397 43.4175C68.0179 44.0915 70.8574 43.9381 70.965 43.7005C71.0726 43.4628 70.8954 32.3853 70.8954 32.3853Z" fill="rgb(72,96,191)" fill-rule="nonzero" />
			<path id="Vector 5156" d="M65.8828 26.967C65.9774 29.8058 66.4372 31.7556 66.5122 32.61C66.5873 33.4645 71.0193 34.9832 70.6812 31.236C70.3431 27.4888 70.3616 24.0645 70.292 23.2576C70.2225 22.4507 66.4405 23.2025 65.8828 26.967Z" fill="rgb(72,96,191)" fill-rule="nonzero" />
			<path id="Vector 5157" d="M41.9634 12.6436C41.7471 11.8788 37.5651 11.0892 37.839 12.8024C38.113 14.5156 39.1968 20.0127 40.4459 20.9179C41.6949 21.8232 43.8017 19.1626 43.4908 17.982C43.1799 16.8024 41.9634 12.6436 41.9634 12.6436Z" fill="rgb(72,96,191)" fill-rule="nonzero" />
			<path id="Vector 5158" d="M40.3865 13.5045C40.6028 13.4234 40.8148 13.3295 41.0246 13.2355C41.279 13.1221 41.6801 12.9492 41.7095 12.6382C41.7366 12.3433 41.5486 12.0041 41.5529 11.6951C41.5616 10.9865 41.8801 9.77453 41.9551 9.26792C42.0301 8.76238 41.6355 7.32248 41.6355 7.32248L40.892 7.06647C40.892 7.06647 39.1907 3.97601 39.0276 3.80101C38.8646 3.62602 38.5352 3.83883 38.5352 3.83883C38.5352 3.83883 38.2438 3.33006 37.9558 3.25768C37.6666 3.18639 37.5199 3.72866 37.5199 3.72866C37.5199 3.72866 37.272 3.77835 37.2003 4.06568C37.1285 4.35302 36.6176 5.07891 36.6393 5.35869C36.6611 5.63846 37.3894 10.1926 37.659 11.2436C37.7949 11.7708 37.9188 12.3012 38.0482 12.8294C38.1471 13.2334 38.1852 13.4181 38.5874 13.5909C38.9081 13.7292 39.2733 13.7551 39.6168 13.7087C39.8821 13.673 40.1364 13.5974 40.3865 13.5045Z" fill="rgb(255,156,120)" fill-rule="nonzero" />
			<g id="Group 1510">
				<g id="Group 1511">
					<path id="Vector 5159" d="M1.96604 38.1374C1.99321 38.1882 2.15736 39.3386 2.02257 39.8549C1.88778 40.3713 1.73341 42.1072 1.79535 42.8925C1.85623 43.6778 1.73666 45.5336 1.841 45.8555C1.94537 46.1774 2.34105 46.0283 2.34105 46.0283C2.34105 46.0283 2.27473 46.5598 2.50301 46.7985C2.73023 47.0372 3.227 46.6646 3.227 46.6646C3.227 46.6646 2.99978 47.2381 3.53357 47.3235C4.06733 47.4088 4.19452 46.8503 4.19452 46.8503L4.79784 43.4769C4.79784 43.4769 5.40552 42.0348 5.21964 40.6305C5.03375 39.2252 4.84459 38.9184 4.72828 38.1709C4.61306 37.4223 4.51194 35.2598 4.51194 35.2598L1.96604 38.1374Z" fill="rgb(255,156,120)" fill-rule="nonzero" />
					<path id="Vector 5160" d="M4.34932 40.0547C4.23516 40.2567 3.64816 40.6305 3.87319 41.5476C4.09822 42.4647 4.08952 42.6429 4.60155 42.8751C5.11358 43.1074 5.094 44.1174 5.44732 44.5495C5.79954 44.9826 6.20394 44.9869 6.2833 44.8865C6.36265 44.786 5.99521 43.4315 5.98326 43.0599C5.97132 42.6883 5.80063 41.58 5.57995 40.9016C5.35814 40.2222 4.78415 39.7339 4.34932 40.0547Z" fill="rgb(255,156,120)" fill-rule="nonzero" />
					<path id="Vector 5161" d="M10.0336 14.1655C8.48456 13.593 6.7224 13.8652 5.67987 15.5687C4.63735 17.2711 3.73183 20.0775 3.37417 21.1134C3.01651 22.1482 0.866266 26.7769 0.628202 28.8055C0.390137 30.8341 4.0873 30.2195 4.58845 29.3521C5.08849 28.4847 8.39433 23.1171 9.10527 19.8236C9.81731 16.529 10.0336 14.1655 10.0336 14.1655Z" fill="rgb(208,228,240)" fill-rule="nonzero" />
					<path id="Vector 5162" d="M2.8467 27.0684C1.05302 28.2901 0.89431 27.4498 0.629042 28.8043C0.363808 30.1589 1.49 37.8575 1.70959 38.8783C1.92917 39.8991 5.22628 39.8915 5.25454 38.7044C5.28281 37.5173 5.29475 29.0636 5.20455 27.8419C5.11325 26.6191 2.8467 27.0684 2.8467 27.0684Z" fill="rgb(208,228,240)" fill-rule="nonzero" />
					<path id="Vector 5163" d="M18.5907 76.5299C18.182 76.7286 17.5689 76.639 17.5537 77.3519C17.5384 78.0648 17.3656 78.3532 17.558 78.8977C17.7504 79.4421 17.9885 79.8893 18.6799 80.0211C19.3713 80.1529 21.4737 79.5415 21.4737 79.5415L21.8335 79.1029C21.8335 79.1029 24.4153 78.8998 26.0025 78.6341C27.5907 78.3684 28.8256 77.1402 29.1398 76.4327C29.4528 75.7251 29.2583 74.8242 29.2289 74.605C29.1995 74.3857 28.2962 74.1048 27.2765 74.175C26.2568 74.2431 18.5907 76.5299 18.5907 76.5299Z" fill="rgb(33,36,48)" fill-rule="nonzero" />
					<path id="Vector 5164" d="M1.08639 75.5016C0.78635 75.9336 0.228677 76.3225 0.137379 76.9912C0.0449868 77.6598 -0.0256761 78.2906 0.0634653 78.5132C0.152607 78.7357 1.13422 79.0403 2.26808 79.0943C3.40191 79.1483 4.48789 77.7246 4.66073 77.4405C4.83357 77.1564 4.86619 76.5051 5.26296 76.1281C5.65973 75.7511 6.15653 75.3762 6.74681 75.1181C7.3371 74.861 7.96434 74.2766 8.66224 73.4384C9.36124 72.6002 9.26885 72.0417 9.26885 71.6258C9.26885 71.2099 8.87642 70.8157 8.48834 70.7271C8.10026 70.6385 5.67606 71.9077 5.67606 71.9077L1.08639 75.5016Z" fill="rgb(33,36,48)" fill-rule="nonzero" />
					<path id="Vector 5165" d="M17.7885 74.6861C17.8363 74.9258 17.77 75.7965 17.7885 76.6294C17.8081 77.4622 17.7276 77.4784 18.0201 78.0271C18.3125 78.5759 18.4419 78.78 19.4561 78.8287C20.4704 78.8773 22.501 78.1233 23.6751 78.16C24.8491 78.1967 27.5299 77.5918 28.1995 76.9308C28.8691 76.2697 28.9115 76.2319 28.9387 75.6788C28.9659 75.1257 29.0213 74.7909 28.5158 74.133C28.0092 73.4752 27.5505 73.4925 27.5505 73.4925C27.5505 73.4925 24.0338 73.661 22.2955 73.3391C20.5551 73.0182 17.7885 74.6861 17.7885 74.6861Z" fill="rgb(51,55,74)" fill-rule="nonzero" />
					<path id="Vector 5166" d="M0.925883 71.8399C0.925883 71.8399 0.318216 74.0878 0.331254 75.465C0.344292 76.8423 0.367116 76.6058 0.461698 77.0065C0.55628 77.4073 1.8086 77.8836 2.93589 77.66C4.06318 77.4364 4.46433 75.7524 4.9894 75.2037C5.51446 74.6549 6.7983 74.4983 7.69406 73.6892C8.59091 72.8801 8.76047 71.4424 8.76047 71.4424C8.76047 71.4424 8.73001 70.8472 8.19301 70.4043C7.656 69.9625 6.22649 69.8545 4.80567 70.3806C3.38376 70.9077 0.925883 71.8399 0.925883 71.8399Z" fill="rgb(51,55,74)" fill-rule="nonzero" />
					<path id="Vector 5167" d="M9.53695 34.2043C7.403 37.0928 7.15843 37.3423 6.80621 39.7026C6.45399 42.0628 6.69534 45.6988 6.6475 47.1031C6.59966 48.5073 5.25169 54.1892 4.88424 55.8333C4.51679 57.4773 10.2022 58.6213 11.0502 57.5929C11.897 56.5635 14.0809 50.2292 14.5049 48.0709C14.9289 45.9127 13.8288 37.5011 13.5559 36.4976C13.2809 35.493 9.53695 34.2043 9.53695 34.2043Z" fill="rgb(38,50,99)" fill-rule="nonzero" />
					<path id="Vector 5168" d="M11.0489 36.2966C10.8848 37.1997 8.97042 39.7231 9.79008 44.1595C10.6097 48.5958 12.7535 47.1246 13.4731 48.7039C14.1938 50.2831 16.131 57.7906 16.7496 59.8202C17.3681 61.8499 23.0731 61.1975 23.309 60.4565C23.5438 59.7155 23.2405 47.103 22.6829 42.9961C22.1252 38.8891 21.5273 34.78 21.5012 34.5013C21.4751 34.2227 11.0489 36.2966 11.0489 36.2966Z" fill="rgb(38,50,99)" fill-rule="nonzero" />
					<path id="Vector 5169" d="M18.4422 54.7964C16.7594 56.2752 16.6029 59.1247 16.4887 61.041C16.1354 66.9822 17.2192 73.2246 17.6138 74.9476C18.0085 76.6705 23.183 76.1779 23.308 74.441C23.4319 72.704 23.3841 59.2187 23.3841 59.2187L18.4422 54.7964Z" fill="rgb(38,50,99)" fill-rule="nonzero" />
					<path id="Vector 5170" d="M6.87975 51.8202C5.9677 51.2574 5.42087 53.084 4.10336 55.5955C2.78581 58.107 1.16498 63.2573 0.43665 67.5803C-0.291708 71.9033 0.105099 72.7502 0.131174 73.8606C0.15725 74.9711 3.18371 75.0369 3.79138 74.8285C4.39905 74.62 4.97195 74.3305 5.2546 73.4329C5.53725 72.5352 7.36135 64.3592 11.2151 57.3486C9.30936 54.8145 6.87975 51.8202 6.87975 51.8202Z" fill="rgb(38,50,99)" fill-rule="nonzero" />
					<path id="Vector 5171" d="M23.6465 25.6514C28.2611 26.6851 33.1139 27.3138 34.9706 26.8482C34.8847 25.7551 34.5553 23.4964 32.4323 22.8817C30.3092 22.2671 29.2917 21.4656 26.9643 20.9579C24.6368 20.4491 23.6465 25.6514 23.6465 25.6514Z" fill="rgb(72,96,191)" fill-rule="nonzero" />
					<path id="Vector 5172" d="M22.9335 21.6448C22.2845 18.9994 22.7759 18.1309 21.4898 17.5055C20.2049 16.879 15.2011 15.2425 14.4379 14.9389C13.6759 14.6354 11.2724 14.2519 9.24603 14.0953C7.22079 13.9386 6.03912 14.8622 5.59345 17.8857C5.14774 20.9103 7.06211 27.6572 7.26212 29.0637C7.46323 30.4701 7.91763 34.4755 7.82305 36.5937C8.02415 38.416 13.5193 40.0245 17.1611 39.4109C19.4233 39.0296 21.4409 38.1849 21.6627 37.3045C21.8844 36.4242 22.0486 28.7342 22.2616 26.8125C22.4769 24.8919 22.9335 21.6448 22.9335 21.6448Z" fill="rgb(183,211,232)" fill-rule="nonzero" />
					<path id="Vector 5173" d="M32.4612 22.2627C26.3431 19.5039 22.185 17.8047 21.4914 17.5055C20.7979 17.2074 19.0259 16.7386 18.4498 19.9792C17.8736 23.2198 18.6465 23.9651 19.3944 24.3572C23.1188 26.3102 28.9749 27.5071 31.9415 27.9759C34.9092 28.4447 34.656 27.8031 34.9712 26.8482C35.2864 25.8922 34.3744 23.7393 33.746 23.1442C33.1167 22.5501 32.4612 22.2627 32.4612 22.2627Z" fill="rgb(208,228,240)" fill-rule="nonzero" />
					<path id="Vector 5174" d="M40.6743 14.2348C40.7515 13.2885 37.2543 12.6415 36.8227 13.3685C36.3912 14.0954 32.0907 22.75 31.8037 23.7254C31.5167 24.7009 32.8255 28.3671 34.0833 28.0851C35.2649 27.8194 35.7302 27.0028 36.0107 26.5502C37.7261 23.7827 40.6743 14.2348 40.6743 14.2348Z" fill="rgb(208,228,240)" fill-rule="nonzero" />
					<path id="Vector 5175" d="M37.3718 13.6005C37.2892 13.5335 37.2294 13.4482 37.2468 13.3358C37.2697 13.19 37.3153 13.0463 37.3349 12.8973C37.3686 12.6445 37.4425 12.2783 37.3044 12.0439C37.1022 11.6972 36.1532 10.3048 36.1043 10.0844C36.0554 9.86407 35.6336 8.4868 35.5097 8.17462C35.3857 7.86137 35.3488 7.58266 35.701 7.51029C36.0532 7.43791 36.3108 7.74793 36.4924 8.17246C36.675 8.59698 37.0087 9.51407 37.0087 9.51407L37.1381 9.32181C37.1381 9.32181 37.1305 5.37367 37.312 4.93294C37.4925 4.49221 37.9393 4.73526 37.9393 4.73526C37.9393 4.73526 37.8969 3.97049 38.3795 3.88514C38.8622 3.79981 38.9807 4.42956 38.9807 4.42956L39.0079 4.90592C39.0079 4.90592 39.5808 4.59699 39.8058 5.10253C40.0308 5.60807 39.9602 6.44738 39.9602 6.44738C39.9602 6.44738 40.769 6.20866 40.7853 6.69475C40.8016 7.18083 40.8483 9.49031 40.8483 9.49031C40.8483 9.49031 41.1582 10.5057 40.8907 11.2953C40.8179 11.5092 40.7462 11.7231 40.6755 11.9359C40.4483 12.6175 40.17 13.3088 40.0059 14.0088C39.9624 14.1968 39.9732 14.241 39.7471 14.2324C39.5308 14.2248 39.3145 14.1957 39.1025 14.1557C38.6742 14.0769 38.2567 13.9483 37.8426 13.8176C37.711 13.7755 37.5773 13.7323 37.4599 13.6599C37.4284 13.6426 37.399 13.6231 37.3718 13.6005Z" fill="rgb(255,156,120)" fill-rule="nonzero" />
					<path id="Vector 5176" d="M11.0719 9.60052C11.4969 12.058 11.3393 12.7169 10.9719 13.8241C10.6034 14.9313 10.6121 14.415 10.5925 14.8103C10.5729 15.2046 10.9567 15.5157 13.8027 16.0472C16.6486 16.5797 17.3748 16.7277 17.4248 16.3604C17.4748 15.9942 17.1846 14.9562 17.327 14.6289C17.4683 14.3016 19.6044 14.779 20.3382 14.3567C21.0719 13.9332 21.2024 10.8157 21.2709 10.6937C21.3394 10.5716 21.8112 10.3653 21.8068 10.011C21.8025 9.65668 20.9633 8.82491 20.7654 8.14872C20.5676 7.4725 20.9861 5.76363 20.4947 4.24054C20.0023 2.71745 19.3783 2.18708 17.24 1.77227C15.1007 1.35747 12.159 4.09039 11.5122 5.74634C10.8643 7.40339 11.0719 9.60052 11.0719 9.60052Z" fill="rgb(255,156,120)" fill-rule="nonzero" />
					<path id="Vector 5177" d="M20.1 4.9319C19.0836 5.15442 18.2933 4.97295 18.2487 5.46985C18.203 5.96782 18.1009 7.31267 18.1009 7.31267C18.1009 7.31267 17.0486 8.69641 17.054 9.01075C17.0594 9.32509 17.0127 9.84358 17.0127 9.84358L15.9093 9.68695C15.9093 9.68695 16.0397 7.43905 14.0612 8.07853C13.0492 8.40582 13.6275 11.8009 12.7241 12.3918C12.4447 12.5754 11.649 12.4069 11.3229 12.085C10.2597 11.0318 9.25522 8.44688 9.08347 5.52168C8.91173 2.5965 11.1804 1.701 11.7403 1.39423C13.1763 -0.120208 15.9092 -0.342739 18.0095 0.445805C20.1097 1.23435 20.8359 3.19492 21.037 3.80848C21.2392 4.42205 20.1 4.9319 20.1 4.9319Z" fill="rgb(41,25,37)" fill-rule="nonzero" />
					<path id="Vector 5178" d="M15.177 8.39286C15.3303 7.84412 14.9411 7.2338 14.2508 7.52978C13.5616 7.82576 13.5236 8.45012 13.6008 9.09932C13.679 9.74744 13.8454 10.388 14.5237 10.4906C15.202 10.5932 15.0705 9.86518 15.0324 9.57352C14.9955 9.28293 15.177 8.39286 15.177 8.39286Z" fill="rgb(255,156,120)" fill-rule="nonzero" />
				</g>
				<path id="Vector 5179" d="M12.2216 14.4487C11.0106 14.0652 10.928 13.8448 10.928 13.8448L11.0552 13.564C11.0552 13.564 10.8128 13.6072 10.716 13.7627C10.4486 14.1948 10.1507 14.7349 10.0333 15.113C9.91702 15.4911 11.2682 16.0258 13.0902 16.352C14.9122 16.6782 16.0808 16.8132 16.6362 16.7895C17.1928 16.7657 17.7386 16.7063 17.7114 16.3887C17.6842 16.0711 17.5244 15.4316 17.42 15.261C17.3157 15.0903 17.2624 15.0687 17.2624 15.0687C17.2624 15.0687 17.1135 15.1497 16.6504 15.1637C16.1894 15.18 12.901 14.6636 12.2216 14.4487Z" fill="rgb(208,228,240)" fill-rule="nonzero" />
			</g>
		</g>
	</g>
</svg>
